<?xml version="1.0" ?><!--Uploaded to: SVG Repo, www.svgrepo.com, Generator: SVG Repo Mixer Tools--><svg width="800px" height="800px" viewBox="-8 0 60 60" id="clipboard" xmlns="http://www.w3.org/2000/svg"><defs><style>.cls-1 {
        fill: #65727f;
      }

      .cls-1, .cls-2 {
        fill-rule: evenodd;
      }

      .cls-2 {
        fill: #b5997a;
      }</style></defs><path class="cls-1" d="M368,452h4a2,2,0,0,1,2-2h12a2,2,0,0,1,2,2h4v4H368v-4Z" data-name="clipboard" id="clipboard-2" transform="translate(-358 -450)"/><path class="cls-2" d="M391.172,499.172A3.982,3.982,0,0,0,390,502v8H362a4,4,0,0,1-4-4V456a4,4,0,0,1,4-4h2v6a2,2,0,0,0,2,2h28a2,2,0,0,0,2-2v-6h2a4,4,0,0,1,4,4v42m-8,12v-8h8Zm-24-42h20a2,2,0,0,1,0,4H370A2,2,0,0,1,370,468Zm0,10h20a2,2,0,0,1,0,4H370A2,2,0,0,1,370,478Zm0,10h20a2,2,0,0,1,0,4H370A2,2,0,0,1,370,488Z" data-name="clipboard copy" id="clipboard_copy" transform="translate(-358 -450)"/></svg>