<?xml version="1.0" encoding="iso-8859-1"?><!--Uploaded to: SVG Repo, www.svgrepo.com, Generator: SVG Repo Mixer Tools--><svg height="800px" width="800px" version="1.1" id="Layer_1" xmlns="http://www.w3.org/2000/svg" xmlns:xlink="http://www.w3.org/1999/xlink" viewBox="0 0 512.005 512.005" xml:space="preserve"><g transform="translate(0 -1)"><g><path style="fill:#A5A5A4" d="M102.402,214.338h-25.6c-4.71,0-8.533-3.823-8.533-8.533s3.823-8.533,8.533-8.533h25.6
			c4.71,0,8.533,3.823,8.533,8.533S107.113,214.338,102.402,214.338"/><path style="fill:#A5A5A4" d="M102.402,316.738h-25.6c-4.71,0-8.533-3.823-8.533-8.533s3.823-8.533,8.533-8.533h25.6
			c4.71,0,8.533,3.823,8.533,8.533S107.113,316.738,102.402,316.738"/><path style="fill:#A5A5A4" d="M102.402,282.605h-25.6c-4.71,0-8.533-3.823-8.533-8.533s3.823-8.533,8.533-8.533h25.6
			c4.71,0,8.533,3.823,8.533,8.533S107.113,282.605,102.402,282.605"/><path style="fill:#A5A5A4" d="M102.402,248.471h-25.6c-4.71,0-8.533-3.823-8.533-8.533c0-4.71,3.823-8.533,8.533-8.533h25.6
			c4.71,0,8.533,3.823,8.533,8.533C110.936,244.648,107.113,248.471,102.402,248.471"/><path style="fill:#A5A5A4" d="M435.202,214.338h-25.6c-4.71,0-8.533-3.823-8.533-8.533s3.823-8.533,8.533-8.533h25.6
			c4.71,0,8.533,3.823,8.533,8.533S439.913,214.338,435.202,214.338"/><path style="fill:#A5A5A4" d="M435.202,316.738h-25.6c-4.71,0-8.533-3.823-8.533-8.533s3.823-8.533,8.533-8.533h25.6
			c4.71,0,8.533,3.823,8.533,8.533S439.913,316.738,435.202,316.738"/><path style="fill:#A5A5A4" d="M435.202,282.605h-25.6c-4.71,0-8.533-3.823-8.533-8.533s3.823-8.533,8.533-8.533h25.6
			c4.71,0,8.533,3.823,8.533,8.533S439.913,282.605,435.202,282.605"/><path style="fill:#A5A5A4" d="M435.202,248.471h-25.6c-4.71,0-8.533-3.823-8.533-8.533c0-4.71,3.823-8.533,8.533-8.533h25.6
			c4.71,0,8.533,3.823,8.533,8.533C443.736,244.648,439.913,248.471,435.202,248.471"/><path style="fill:#A5A5A4" d="M307.202,111.938c-4.71,0-8.533-3.823-8.533-8.533v-25.6c0-4.71,3.823-8.533,8.533-8.533
			c4.71,0,8.533,3.823,8.533,8.533v25.6C315.736,108.115,311.913,111.938,307.202,111.938"/><path style="fill:#A5A5A4" d="M204.802,111.938c-4.71,0-8.533-3.823-8.533-8.533v-25.6c0-4.71,3.823-8.533,8.533-8.533
			s8.533,3.823,8.533,8.533v25.6C213.336,108.115,209.513,111.938,204.802,111.938"/><path style="fill:#A5A5A4" d="M238.936,111.938c-4.71,0-8.533-3.823-8.533-8.533v-25.6c0-4.71,3.823-8.533,8.533-8.533
			s8.533,3.823,8.533,8.533v25.6C247.469,108.115,243.646,111.938,238.936,111.938"/><path style="fill:#A5A5A4" d="M273.069,111.938c-4.71,0-8.533-3.823-8.533-8.533v-25.6c0-4.71,3.823-8.533,8.533-8.533
			s8.533,3.823,8.533,8.533v25.6C281.602,108.115,277.779,111.938,273.069,111.938"/><path style="fill:#A5A5A4" d="M307.202,444.738c-4.71,0-8.533-3.823-8.533-8.533v-25.6c0-4.71,3.823-8.533,8.533-8.533
			c4.71,0,8.533,3.823,8.533,8.533v25.6C315.736,440.915,311.913,444.738,307.202,444.738"/><path style="fill:#A5A5A4" d="M204.802,444.738c-4.71,0-8.533-3.823-8.533-8.533v-25.6c0-4.71,3.823-8.533,8.533-8.533
			s8.533,3.823,8.533,8.533v25.6C213.336,440.915,209.513,444.738,204.802,444.738"/><path style="fill:#A5A5A4" d="M238.936,444.738c-4.71,0-8.533-3.823-8.533-8.533v-25.6c0-4.71,3.823-8.533,8.533-8.533
			s8.533,3.823,8.533,8.533v25.6C247.469,440.915,243.646,444.738,238.936,444.738"/><path style="fill:#A5A5A4" d="M273.069,444.738c-4.71,0-8.533-3.823-8.533-8.533v-25.6c0-4.71,3.823-8.533,8.533-8.533
			s8.533,3.823,8.533,8.533v25.6C281.602,440.915,277.779,444.738,273.069,444.738"/><path style="fill:#A5A5A4" d="M42.669,214.338H8.536c-4.71,0-8.533-3.823-8.533-8.533s3.823-8.533,8.533-8.533h34.133
			c4.71,0,8.533,3.823,8.533,8.533S47.379,214.338,42.669,214.338"/><path style="fill:#A5A5A4" d="M42.669,248.471H8.536c-4.71,0-8.533-3.823-8.533-8.533c0-4.71,3.823-8.533,8.533-8.533h34.133
			c4.71,0,8.533,3.823,8.533,8.533C51.202,244.648,47.379,248.471,42.669,248.471"/><path style="fill:#A5A5A4" d="M42.669,282.605H8.536c-4.71,0-8.533-3.823-8.533-8.533s3.823-8.533,8.533-8.533h34.133
			c4.71,0,8.533,3.823,8.533,8.533S47.379,282.605,42.669,282.605"/><path style="fill:#A5A5A4" d="M42.669,316.738H8.536c-4.71,0-8.533-3.823-8.533-8.533s3.823-8.533,8.533-8.533h34.133
			c4.71,0,8.533,3.823,8.533,8.533S47.379,316.738,42.669,316.738"/><path style="fill:#A5A5A4" d="M503.469,214.338h-34.133c-4.71,0-8.533-3.823-8.533-8.533s3.823-8.533,8.533-8.533h34.133
			c4.71,0,8.533,3.823,8.533,8.533S508.179,214.338,503.469,214.338"/><path style="fill:#A5A5A4" d="M503.469,248.471h-34.133c-4.71,0-8.533-3.823-8.533-8.533c0-4.71,3.823-8.533,8.533-8.533h34.133
			c4.71,0,8.533,3.823,8.533,8.533C512.002,244.648,508.179,248.471,503.469,248.471"/><path style="fill:#A5A5A4" d="M503.469,282.605h-34.133c-4.71,0-8.533-3.823-8.533-8.533s3.823-8.533,8.533-8.533h34.133
			c4.71,0,8.533,3.823,8.533,8.533S508.179,282.605,503.469,282.605"/><path style="fill:#A5A5A4" d="M503.469,316.738h-34.133c-4.71,0-8.533-3.823-8.533-8.533s3.823-8.533,8.533-8.533h34.133
			c4.71,0,8.533,3.823,8.533,8.533S508.179,316.738,503.469,316.738"/><path style="fill:#A5A5A4" d="M204.802,513.005c-4.71,0-8.533-3.823-8.533-8.533v-34.133c0-4.71,3.823-8.533,8.533-8.533
			s8.533,3.823,8.533,8.533v34.133C213.336,509.182,209.513,513.005,204.802,513.005"/><path style="fill:#A5A5A4" d="M238.936,513.005c-4.71,0-8.533-3.823-8.533-8.533v-34.133c0-4.71,3.823-8.533,8.533-8.533
			s8.533,3.823,8.533,8.533v34.133C247.469,509.182,243.646,513.005,238.936,513.005"/><path style="fill:#A5A5A4" d="M273.069,513.005c-4.71,0-8.533-3.823-8.533-8.533v-34.133c0-4.71,3.823-8.533,8.533-8.533
			s8.533,3.823,8.533,8.533v34.133C281.602,509.182,277.779,513.005,273.069,513.005"/><path style="fill:#A5A5A4" d="M307.202,513.005c-4.71,0-8.533-3.823-8.533-8.533v-34.133c0-4.71,3.823-8.533,8.533-8.533
			c4.71,0,8.533,3.823,8.533,8.533v34.133C315.736,509.182,311.913,513.005,307.202,513.005"/><path style="fill:#A5A5A4" d="M204.802,52.205c-4.71,0-8.533-3.823-8.533-8.533V9.538c0-4.71,3.823-8.533,8.533-8.533
			s8.533,3.823,8.533,8.533v34.133C213.336,48.382,209.513,52.205,204.802,52.205"/><path style="fill:#A5A5A4" d="M238.936,52.205c-4.71,0-8.533-3.823-8.533-8.533V9.538c0-4.71,3.823-8.533,8.533-8.533
			s8.533,3.823,8.533,8.533v34.133C247.469,48.382,243.646,52.205,238.936,52.205"/><path style="fill:#A5A5A4" d="M273.069,52.205c-4.71,0-8.533-3.823-8.533-8.533V9.538c0-4.71,3.823-8.533,8.533-8.533
			s8.533,3.823,8.533,8.533v34.133C281.602,48.382,277.779,52.205,273.069,52.205"/><path style="fill:#A5A5A4" d="M307.202,52.205c-4.71,0-8.533-3.823-8.533-8.533V9.538c0-4.71,3.823-8.533,8.533-8.533
			c4.71,0,8.533,3.823,8.533,8.533v34.133C315.736,48.382,311.913,52.205,307.202,52.205"/><path style="fill:#A5A5A4" d="M136.536,347.822V166.19c0-15.821,12.826-28.655,28.646-28.655h181.641
			c15.821,0,28.646,12.834,28.646,28.655v181.632c0,15.821-12.826,28.646-28.646,28.646H165.182
			C149.361,376.468,136.536,363.642,136.536,347.822"/></g><g><polygon style="fill:#5E5F62" points="187.735,137.538 324.268,137.538 324.268,103.405 187.735,103.405 		"/><polygon style="fill:#5E5F62" points="187.735,410.605 324.268,410.605 324.268,376.471 187.735,376.471 		"/><polygon style="fill:#5E5F62" points="375.468,325.271 409.602,325.271 409.602,188.738 375.468,188.738 		"/><polygon style="fill:#5E5F62" points="102.402,325.271 136.535,325.271 136.535,188.738 102.402,188.738 		"/></g><g><path style="fill:#A5A5A4" d="M128.002,129.005c-2.082,0-4.164-0.751-5.811-2.278L2.724,15.793
			c-3.447-3.209-3.644-8.61-0.444-12.066c3.217-3.447,8.61-3.644,12.066-0.444l119.467,110.933c3.447,3.209,3.644,8.61,0.444,12.066
			C132.576,128.092,130.289,129.005,128.002,129.005"/><path style="fill:#A5A5A4" d="M384.002,129.005c-2.287,0-4.574-0.913-6.255-2.722c-3.2-3.456-3.004-8.858,0.444-12.066
			L497.658,3.283c3.456-3.209,8.841-3.012,12.066,0.444c3.2,3.456,3.004,8.858-0.444,12.066L389.814,126.726
			C388.167,128.254,386.085,129.005,384.002,129.005"/><path style="fill:#A5A5A4" d="M503.469,513.005c-2.082,0-4.164-0.751-5.811-2.278L378.191,399.793
			c-3.447-3.209-3.644-8.61-0.444-12.066c3.217-3.439,8.602-3.644,12.066-0.444L509.28,498.216c3.447,3.209,3.644,8.61,0.444,12.066
			C508.043,512.092,505.756,513.005,503.469,513.005"/><path style="fill:#A5A5A4" d="M8.536,513.005c-2.287,0-4.574-0.913-6.255-2.722c-3.2-3.456-3.004-8.858,0.444-12.066
			l119.467-110.933c3.456-3.2,8.849-3.004,12.066,0.444c3.2,3.456,3.004,8.858-0.444,12.066L14.347,510.726
			C12.7,512.254,10.618,513.005,8.536,513.005"/></g><path style="fill:#5E5F62" d="M341.336,248.8l-10.266-1.971c-15.241-2.935-22.229-20.736-13.047-33.254l6.443-8.789
		l-13.926-13.918l-8.653,5.862c-12.851,8.704-30.379,1.05-32.742-14.285l-1.655-10.769h-19.695l-2.543,13.261
		c-2.867,14.899-20.045,22.007-32.606,13.5l-11.179-7.569l-13.926,13.918l6.443,8.789c9.182,12.518,2.193,30.319-13.047,33.254
		l-10.266,1.971v19.695l10.778,1.655c15.334,2.355,22.98,19.891,14.276,32.734l-5.862,8.661l13.926,13.918l8.789-6.443
		c12.51-9.173,30.319-2.185,33.246,13.047l1.971,10.274h19.695l1.169-7.578c2.406-15.684,20.591-23.211,33.382-13.833l6.178,4.531
		l13.926-13.918l-5.862-8.661c-8.704-12.843-1.058-30.379,14.276-32.734l10.778-1.655V248.8z"/><path style="fill:#3A3C3F" d="M281.602,257.005c0,14.14-11.46,25.6-25.6,25.6c-14.14,0-25.6-11.46-25.6-25.6
		c0-14.14,11.46-25.6,25.6-25.6C270.142,231.405,281.602,242.865,281.602,257.005"/></g></svg>