<?xml version="1.0" encoding="iso-8859-1"?><!--Uploaded to: SVG Repo, www.svgrepo.com, Generator: SVG Repo Mixer Tools--><svg height="800px" width="800px" version="1.1" id="Layer_1" xmlns="http://www.w3.org/2000/svg" xmlns:xlink="http://www.w3.org/1999/xlink" viewBox="0 0 512 512" xml:space="preserve"><g><g><path style="fill:#BDC3C7" d="M194.259,282.492c-1.095,0-2.198-0.194-3.275-0.618c-11.352-4.449-17.161-22.422-13.497-41.799
			c2.419-12.835,15.245-54.696,78.513-54.696c63.258,0,76.085,41.86,78.521,54.687c3.663,19.377-2.145,37.35-13.506,41.807
			c-4.511,1.766-9.657-0.459-11.441-4.996c-1.783-4.537,0.459-9.657,4.996-11.441c2.207-1.624,5.711-13.506,1.183-27.657
			c-4.158-12.977-17.443-34.745-59.754-34.745c-42.319,0-55.614,21.778-59.754,34.754c-4.529,14.151-1.024,26.024,1.421,27.763
			c4.529,1.783,6.656,6.841,4.873,11.388C201.18,280.399,197.799,282.492,194.259,282.492"/><path style="fill:#BDC3C7" d="M256,203.034c-4.882,0-8.828-3.955-8.828-8.828v-52.966c0-4.873,3.946-8.828,8.828-8.828
			s8.828,3.955,8.828,8.828v52.966C264.828,199.08,260.882,203.034,256,203.034"/></g><path style="fill:#2C3E50" d="M476.69,512H35.31C15.81,512,0,496.19,0,476.69c0-19.5,15.81-35.31,35.31-35.31H476.69
		c19.5,0,35.31,15.81,35.31,35.31C512,496.19,496.19,512,476.69,512"/><path style="fill:#CB8252" d="M141.241,441.379H17.655V334.371c0-9.154,7.424-16.578,16.578-16.578h90.43
		c9.154,0,16.578,7.424,16.578,16.578V441.379z"/><path style="fill:#A0613F" d="M317.793,388.414H194.207V281.406c0-9.154,7.424-16.578,16.578-16.578h90.43
		c9.154,0,16.578,7.424,16.578,16.578V388.414z"/><path style="fill:#CB8252" d="M494.345,441.379H370.759V334.371c0-9.154,7.424-16.578,16.578-16.578h90.43
		c9.154,0,16.578,7.424,16.578,16.578V441.379z"/><path style="fill:#962B23" d="M300.138,97.103c0,24.373-19.765,44.138-44.138,44.138s-44.138-19.765-44.138-44.138
		S231.627,52.966,256,52.966S300.138,72.73,300.138,97.103"/><path style="fill:#C03A2B" d="M211.862,0v88.276h0.892c4.087-20.145,21.892-35.31,43.246-35.31s39.159,15.166,43.246,35.31h0.892
		V0H211.862z"/><g><path style="fill:#5A6C7A" d="M88.276,476.69c0-4.873-3.955-8.828-8.828-8.828s-8.828,3.955-8.828,8.828
			c0,4.873,3.955,8.828,8.828,8.828S88.276,481.562,88.276,476.69"/><path style="fill:#5A6C7A" d="M52.966,476.69c0-4.873-3.955-8.828-8.828-8.828s-8.828,3.955-8.828,8.828
			c0,4.873,3.955,8.828,8.828,8.828S52.966,481.562,52.966,476.69"/><path style="fill:#5A6C7A" d="M123.586,476.69c0-4.873-3.955-8.828-8.828-8.828c-4.873,0-8.828,3.955-8.828,8.828
			c0,4.873,3.955,8.828,8.828,8.828C119.631,485.517,123.586,481.562,123.586,476.69"/><path style="fill:#5A6C7A" d="M158.897,476.69c0-4.873-3.955-8.828-8.828-8.828c-4.873,0-8.828,3.955-8.828,8.828
			c0,4.873,3.955,8.828,8.828,8.828C154.942,485.517,158.897,481.562,158.897,476.69"/><path style="fill:#5A6C7A" d="M194.207,476.69c0-4.873-3.955-8.828-8.828-8.828c-4.873,0-8.828,3.955-8.828,8.828
			c0,4.873,3.955,8.828,8.828,8.828C190.252,485.517,194.207,481.562,194.207,476.69"/><path style="fill:#5A6C7A" d="M229.517,476.69c0-4.873-3.955-8.828-8.828-8.828s-8.828,3.955-8.828,8.828
			c0,4.873,3.955,8.828,8.828,8.828S229.517,481.562,229.517,476.69"/><path style="fill:#5A6C7A" d="M264.828,476.69c0-4.873-3.955-8.828-8.828-8.828s-8.828,3.955-8.828,8.828
			c0,4.873,3.955,8.828,8.828,8.828S264.828,481.562,264.828,476.69"/><path style="fill:#5A6C7A" d="M300.138,476.69c0-4.873-3.955-8.828-8.828-8.828c-4.873,0-8.828,3.955-8.828,8.828
			c0,4.873,3.955,8.828,8.828,8.828C296.183,485.517,300.138,481.562,300.138,476.69"/><path style="fill:#5A6C7A" d="M335.448,476.69c0-4.873-3.955-8.828-8.828-8.828s-8.828,3.955-8.828,8.828
			c0,4.873,3.955,8.828,8.828,8.828S335.448,481.562,335.448,476.69"/><path style="fill:#5A6C7A" d="M370.759,476.69c0-4.873-3.955-8.828-8.828-8.828c-4.873,0-8.828,3.955-8.828,8.828
			c0,4.873,3.955,8.828,8.828,8.828C366.804,485.517,370.759,481.562,370.759,476.69"/><path style="fill:#5A6C7A" d="M406.069,476.69c0-4.873-3.955-8.828-8.828-8.828c-4.873,0-8.828,3.955-8.828,8.828
			c0,4.873,3.955,8.828,8.828,8.828C402.114,485.517,406.069,481.562,406.069,476.69"/><path style="fill:#5A6C7A" d="M441.379,476.69c0-4.873-3.955-8.828-8.828-8.828s-8.828,3.955-8.828,8.828
			c0,4.873,3.955,8.828,8.828,8.828S441.379,481.562,441.379,476.69"/><path style="fill:#5A6C7A" d="M476.69,476.69c0-4.873-3.955-8.828-8.828-8.828c-4.873,0-8.828,3.955-8.828,8.828
			c0,4.873,3.955,8.828,8.828,8.828C472.735,485.517,476.69,481.562,476.69,476.69"/></g></g></svg>