<?xml version="1.0" encoding="iso-8859-1"?><!--Uploaded to: SVG Repo, www.svgrepo.com, Generator: SVG Repo Mixer Tools--><svg height="800px" width="800px" version="1.1" id="Layer_1" xmlns="http://www.w3.org/2000/svg" xmlns:xlink="http://www.w3.org/1999/xlink" viewBox="0 0 512 512" xml:space="preserve"><g><path style="fill:#3C4660" d="M256,166.4c-4.71,0-8.533-3.823-8.533-8.533v-25.6c0-4.71,3.823-8.533,8.533-8.533
		c4.71,0,8.533,3.823,8.533,8.533v25.6C264.533,162.577,260.71,166.4,256,166.4"/><g><path style="fill:#95A5A5" d="M196.267,234.667h-51.2c-4.71,0-8.533-3.823-8.533-8.533c0-4.71,3.823-8.533,8.533-8.533h51.2
			c4.71,0,8.533,3.823,8.533,8.533C204.8,230.844,200.977,234.667,196.267,234.667"/><path style="fill:#95A5A5" d="M145.067,251.733c-4.71,0-8.533-3.823-8.533-8.533v-34.133c0-4.71,3.823-8.533,8.533-8.533
			s8.533,3.823,8.533,8.533V243.2C153.6,247.91,149.777,251.733,145.067,251.733"/><path style="fill:#95A5A5" d="M366.933,251.733c-4.71,0-8.533-3.823-8.533-8.533v-34.133c0-4.71,3.823-8.533,8.533-8.533
			c4.71,0,8.533,3.823,8.533,8.533V243.2C375.467,247.91,371.644,251.733,366.933,251.733"/><path style="fill:#95A5A5" d="M366.933,234.667h-51.2c-4.71,0-8.533-3.823-8.533-8.533c0-4.71,3.823-8.533,8.533-8.533h51.2
			c4.71,0,8.533,3.823,8.533,8.533C375.467,230.844,371.644,234.667,366.933,234.667"/></g><polygon style="fill:#556080" points="8.532,55.467 503.466,55.467 503.466,4.267 8.532,4.267 	"/><g><polygon style="fill:#3C4660" points="42.666,277.333 93.866,277.333 93.866,55.467 42.666,55.467 		"/><polygon style="fill:#3C4660" points="418.133,277.333 469.333,277.333 469.333,55.467 418.133,55.467 		"/></g><polygon style="fill:#BDC3C7" points="196.266,277.333 315.732,277.333 315.732,192 196.266,192 	"/><polygon style="fill:#3C4660" points="221.866,89.6 290.133,89.6 290.133,55.467 221.866,55.467 	"/><path style="fill:#556080" d="M256,132.267L256,132.267c-9.429,0-17.067-7.637-17.067-17.067V89.6h34.133v25.6
		C273.067,124.629,265.429,132.267,256,132.267"/><path style="fill:#95A5A5" d="M366.933,209.067V243.2"/><g><polygon style="fill:#556080" points="34.132,499.2 85.332,499.2 85.332,430.933 34.132,430.933 		"/><polygon style="fill:#556080" points="426.666,499.2 477.866,499.2 477.866,430.933 426.666,430.933 		"/></g><path style="fill:#3C4660" d="M491.79,430.933H20.212c-6.451,0-11.682-5.231-11.682-11.674v-79.053
		c0-6.443,5.231-11.674,11.682-11.674H491.79c6.451,0,11.674,5.231,11.674,11.674v79.053
		C503.463,425.702,498.241,430.933,491.79,430.933"/><g><path style="fill:#556080" d="M102.4,379.733c0,9.429-7.637,17.067-17.067,17.067s-17.067-7.637-17.067-17.067
			c0-9.429,7.637-17.067,17.067-17.067S102.4,370.304,102.4,379.733"/><path style="fill:#556080" d="M170.667,379.733c0,9.429-7.637,17.067-17.067,17.067s-17.067-7.637-17.067-17.067
			c0-9.429,7.637-17.067,17.067-17.067S170.667,370.304,170.667,379.733"/><path style="fill:#556080" d="M238.933,379.733c0,9.429-7.637,17.067-17.067,17.067c-9.429,0-17.067-7.637-17.067-17.067
			c0-9.429,7.637-17.067,17.067-17.067C231.296,362.667,238.933,370.304,238.933,379.733"/><path style="fill:#556080" d="M307.2,379.733c0,9.429-7.637,17.067-17.067,17.067c-9.429,0-17.067-7.637-17.067-17.067
			c0-9.429,7.637-17.067,17.067-17.067C299.563,362.667,307.2,370.304,307.2,379.733"/><path style="fill:#556080" d="M375.467,379.733c0,9.429-7.637,17.067-17.067,17.067c-9.429,0-17.067-7.637-17.067-17.067
			c0-9.429,7.637-17.067,17.067-17.067C367.829,362.667,375.467,370.304,375.467,379.733"/><path style="fill:#556080" d="M443.733,379.733c0,9.429-7.637,17.067-17.067,17.067s-17.067-7.637-17.067-17.067
			c0-9.429,7.637-17.067,17.067-17.067S443.733,370.304,443.733,379.733"/><path style="fill:#556080" d="M486.4,328.533H25.6v-38.571c0-6.972,5.658-12.629,12.629-12.629h435.541
			c6.972,0,12.629,5.658,12.629,12.629V328.533z"/></g><path style="fill:#3C4660" d="M503.467,507.733H8.533C3.823,507.733,0,503.91,0,499.2s3.823-8.533,8.533-8.533h494.933
		c4.71,0,8.533,3.823,8.533,8.533S508.177,507.733,503.467,507.733"/></g></svg>