<?xml version="1.0" encoding="iso-8859-1"?><!--Uploaded to: SVG Repo, www.svgrepo.com, Generator: SVG Repo Mixer Tools--><svg height="800px" width="800px" version="1.1" id="Layer_1" xmlns="http://www.w3.org/2000/svg" xmlns:xlink="http://www.w3.org/1999/xlink" viewBox="0 0 503.322 503.322" xml:space="preserve"><g><path style="fill:#C69666" d="M459.928,8.678h-78.102v86.78l-43.39-34.712l-43.39,34.712V8.678h-78.102
		c-19.17,0-34.712,15.542-34.712,34.712v95.458h8.678c7.185,0,13.867,2.187,19.404,5.927c3.697,2.499,6.882,5.684,9.381,9.381
		c3.74,5.537,5.927,12.219,5.927,19.404v34.712v173.559c0,19.17-15.542,34.712-34.712,34.712h269.017
		c19.17,0,34.712-15.542,34.712-34.712V43.39C494.64,24.22,479.098,8.678,459.928,8.678"/><path style="fill:#A98258" d="M225.623,381.831c0,16.158-11.09,29.609-26.034,33.488v1.224h156.203
		c19.17,0,34.712-15.542,34.712-34.712V260.339c0-19.17-15.542-34.712-34.712-34.712H321.08v60.746l-26.034-17.356l-26.034,17.356
		v-60.746h-43.39V381.831z"/><path style="fill:#60442B" d="M52.063,416.542h138.847c19.17,0,34.712-15.542,34.712-34.712V173.559
		c0-19.17-15.542-34.712-34.712-34.712h-43.39v60.746l-26.034-17.356l-26.034,17.356v-60.746h-43.39
		c-19.17,0-34.712,15.542-34.712,34.712v208.271C17.352,401,32.894,416.542,52.063,416.542"/><polygon style="fill:#E8D5B2" points="381.826,95.458 338.436,60.746 295.047,95.458 295.047,0 381.826,0 	"/><g><path style="fill:#896745" d="M459.928,390.508h-26.034c-4.79,0-8.678-3.879-8.678-8.678s3.888-8.678,8.678-8.678h26.034
			c4.79,0,8.678,3.879,8.678,8.678S464.718,390.508,459.928,390.508"/><path style="fill:#896745" d="M459.928,355.797h-43.39c-4.79,0-8.678-3.879-8.678-8.678s3.888-8.678,8.678-8.678h43.39
			c4.79,0,8.678,3.879,8.678,8.678S464.718,355.797,459.928,355.797"/><path style="fill:#896745" d="M355.792,399.186h-17.356c-4.79,0-8.678-3.879-8.678-8.678c0-4.799,3.888-8.678,8.678-8.678h17.356
			c4.79,0,8.678,3.879,8.678,8.678C364.47,395.307,360.582,399.186,355.792,399.186"/><path style="fill:#896745" d="M355.792,373.153H321.08c-4.79,0-8.678-3.879-8.678-8.678s3.888-8.678,8.678-8.678h34.712
			c4.79,0,8.678,3.879,8.678,8.678S360.582,373.153,355.792,373.153"/><path style="fill:#896745" d="M190.911,399.186h-17.356c-4.79,0-8.678-3.879-8.678-8.678c0-4.799,3.888-8.678,8.678-8.678h17.356
			c4.79,0,8.678,3.879,8.678,8.678C199.589,395.307,195.701,399.186,190.911,399.186"/><path style="fill:#896745" d="M190.911,373.153h-34.712c-4.79,0-8.678-3.879-8.678-8.678s3.888-8.678,8.678-8.678h34.712
			c4.79,0,8.678,3.879,8.678,8.678S195.701,373.153,190.911,373.153"/><polygon style="fill:#896745" points="0,468.61 503.322,468.61 503.322,416.542 0,416.542 		"/></g><g><polygon style="fill:#60442B" points="17.356,503.322 86.78,503.322 86.78,468.61 17.356,468.61 		"/><polygon style="fill:#60442B" points="416.542,503.322 485.966,503.322 485.966,468.61 416.542,468.61 		"/><polygon style="fill:#60442B" points="216.949,503.322 286.373,503.322 286.373,468.61 216.949,468.61 		"/></g><g><polygon style="fill:#E8D5B2" points="147.521,199.593 121.487,182.237 95.453,199.593 95.453,130.169 147.521,130.169 		"/><polygon style="fill:#E8D5B2" points="321.08,286.373 295.047,269.017 269.013,286.373 269.013,216.949 321.08,216.949 		"/></g></g></svg>