<?xml version="1.0" encoding="UTF-8" standalone="no"?><!--Created with Inkscape (http://www.inkscape.org/)--><svg width="128mm" height="128mm" viewBox="0 0 128 128" version="1.1" id="svg1" xml:space="preserve" sodipodi:docname="icon.svg" xmlns:inkscape="http://www.inkscape.org/namespaces/inkscape" xmlns:sodipodi="http://sodipodi.sourceforge.net/DTD/sodipodi-0.dtd" xmlns:xlink="http://www.w3.org/1999/xlink" xmlns="http://www.w3.org/2000/svg" xmlns:svg="http://www.w3.org/2000/svg"><sodipodi:namedview id="namedview1" pagecolor="#ffffff" bordercolor="#000000" borderopacity="0.25" inkscape:showpageshadow="2" inkscape:pageopacity="0.0" inkscape:pagecheckerboard="0" inkscape:deskcolor="#d1d1d1" inkscape:document-units="mm"/><defs id="defs1"><linearGradient id="linearGradient110"><stop style="stop-color:#20232e;stop-opacity:0" offset="0.43006262" id="stop110"/><stop style="stop-color:#20232e;stop-opacity:0.49803922" offset="0.57828808" id="stop112"/><stop style="stop-color:#20232e;stop-opacity:1" offset="1" id="stop111"/></linearGradient><linearGradient id="linearGradient88"><stop style="stop-color:#96f5ff;stop-opacity:1" offset="0" id="stop88"/><stop style="stop-color:#9c5dff;stop-opacity:1" offset="1" id="stop89"/></linearGradient><linearGradient id="linearGradient8"><stop style="stop-color:#ffffff;stop-opacity:1" offset="0" id="stop8"/><stop style="stop-color:#ccfcff;stop-opacity:1" offset="0.14845939" id="stop12"/><stop style="stop-color:#c3fbff;stop-opacity:0.68095237" offset="0.29131654" id="stop13"/><stop style="stop-color:#8afaff;stop-opacity:0.50588232" offset="0.50140059" id="stop11"/><stop style="stop-color:#ffffff;stop-opacity:0" offset="1" id="stop9"/></linearGradient><linearGradient id="linearGradient6"><stop style="stop-color:#80fbfd;stop-opacity:1" offset="0" id="stop3"/><stop style="stop-color:#9482fe;stop-opacity:1" offset="1" id="stop6"/></linearGradient><linearGradient id="linearGradient1"><stop style="stop-color:#75ebfd;stop-opacity:1" offset="0" id="stop1"/><stop style="stop-color:#9f8df5;stop-opacity:1" offset="1" id="stop2"/></linearGradient><linearGradient id="linearGradient4"><stop style="stop-color:#34e2f7;stop-opacity:1" offset="0" id="stop4"/><stop style="stop-color:#6d45f6;stop-opacity:1" offset="1" id="stop5"/></linearGradient><linearGradient xlink:href="#linearGradient4" id="linearGradient5" x1="40.412125" y1="24.952206" x2="85.3134" y2="103.71866" gradientUnits="userSpaceOnUse"/><linearGradient xlink:href="#linearGradient1" id="linearGradient2" x1="48.783684" y1="35.001259" x2="81.274292" y2="92.250381" gradientUnits="userSpaceOnUse"/><linearGradient xlink:href="#linearGradient6" id="linearGradient3" gradientUnits="userSpaceOnUse" x1="55.992443" y1="52.021938" x2="71.462364" y2="75.429947" gradientTransform="matrix(0.93430655,0,0,0.93430672,4.20438,4.2043719)"/><radialGradient xlink:href="#linearGradient8" id="radialGradient9" cx="57.741875" cy="57.99715" fx="57.741875" fy="57.99715" r="5.7062044" gradientUnits="userSpaceOnUse" gradientTransform="matrix(0,4.181011,-3.9016388,0,286.35505,-185.27713)"/><linearGradient xlink:href="#linearGradient4" id="linearGradient11" gradientUnits="userSpaceOnUse" x1="54.443771" y1="47.777023" x2="72.965546" y2="80.332573"/><linearGradient xlink:href="#linearGradient4" id="linearGradient13" gradientUnits="userSpaceOnUse" x1="40.412125" y1="24.952206" x2="86.9972" y2="102.59612"/><linearGradient xlink:href="#linearGradient88" id="linearGradient89" x1="33.337124" y1="65.349823" x2="91.547112" y2="65.349823" gradientUnits="userSpaceOnUse"/><radialGradient xlink:href="#linearGradient110" id="radialGradient111" cx="64" cy="64" fx="64" fy="64" r="48" gradientUnits="userSpaceOnUse"/><linearGradient xlink:href="#linearGradient88" id="linearGradient112" gradientUnits="userSpaceOnUse" x1="33.337124" y1="65.349823" x2="91.547112" y2="65.349823"/><linearGradient xlink:href="#linearGradient88" id="linearGradient113" gradientUnits="userSpaceOnUse" x1="33.337124" y1="65.349823" x2="91.547112" y2="65.349823"/><linearGradient xlink:href="#linearGradient88" id="linearGradient114" gradientUnits="userSpaceOnUse" x1="33.337124" y1="65.349823" x2="91.547112" y2="65.349823"/><linearGradient xlink:href="#linearGradient88" id="linearGradient115" gradientUnits="userSpaceOnUse" x1="33.337124" y1="65.349823" x2="91.547112" y2="65.349823"/><linearGradient xlink:href="#linearGradient88" id="linearGradient118" gradientUnits="userSpaceOnUse" x1="33.337124" y1="65.349823" x2="91.547112" y2="65.349823"/><linearGradient xlink:href="#linearGradient88" id="linearGradient119" gradientUnits="userSpaceOnUse" x1="33.337124" y1="65.349823" x2="91.547112" y2="65.349823"/><linearGradient xlink:href="#linearGradient88" id="linearGradient120" gradientUnits="userSpaceOnUse" x1="33.337124" y1="65.349823" x2="91.547112" y2="65.349823"/><linearGradient xlink:href="#linearGradient88" id="linearGradient121" gradientUnits="userSpaceOnUse" x1="33.337124" y1="65.349823" x2="91.547112" y2="65.349823"/><linearGradient xlink:href="#linearGradient88" id="linearGradient122" gradientUnits="userSpaceOnUse" x1="33.337124" y1="65.349823" x2="91.547112" y2="65.349823"/><linearGradient xlink:href="#linearGradient88" id="linearGradient123" gradientUnits="userSpaceOnUse" x1="33.337124" y1="65.349823" x2="91.547112" y2="65.349823"/><linearGradient xlink:href="#linearGradient88" id="linearGradient124" gradientUnits="userSpaceOnUse" x1="33.337124" y1="65.349823" x2="91.547112" y2="65.349823"/><linearGradient xlink:href="#linearGradient88" id="linearGradient125" gradientUnits="userSpaceOnUse" x1="33.337124" y1="65.349823" x2="91.547112" y2="65.349823"/><linearGradient xlink:href="#linearGradient88" id="linearGradient126" gradientUnits="userSpaceOnUse" x1="33.337124" y1="65.349823" x2="91.547112" y2="65.349823"/><linearGradient xlink:href="#linearGradient88" id="linearGradient127" gradientUnits="userSpaceOnUse" x1="33.337124" y1="65.349823" x2="91.547112" y2="65.349823"/><linearGradient xlink:href="#linearGradient88" id="linearGradient128" gradientUnits="userSpaceOnUse" x1="33.337124" y1="65.349823" x2="91.547112" y2="65.349823"/><linearGradient xlink:href="#linearGradient88" id="linearGradient129" gradientUnits="userSpaceOnUse" x1="33.337124" y1="65.349823" x2="91.547112" y2="65.349823"/><linearGradient xlink:href="#linearGradient88" id="linearGradient130" gradientUnits="userSpaceOnUse" x1="33.337124" y1="65.349823" x2="91.547112" y2="65.349823"/><linearGradient xlink:href="#linearGradient88" id="linearGradient131" gradientUnits="userSpaceOnUse" x1="33.337124" y1="65.349823" x2="91.547112" y2="65.349823"/><linearGradient xlink:href="#linearGradient88" id="linearGradient132" gradientUnits="userSpaceOnUse" x1="33.337124" y1="65.349823" x2="91.547112" y2="65.349823"/><linearGradient xlink:href="#linearGradient88" id="linearGradient7" gradientUnits="userSpaceOnUse" x1="33.337124" y1="65.349823" x2="91.547112" y2="65.349823"/><linearGradient xlink:href="#linearGradient88" id="linearGradient9" gradientUnits="userSpaceOnUse" x1="33.337124" y1="65.349823" x2="91.547112" y2="65.349823"/><linearGradient xlink:href="#linearGradient88" id="linearGradient10" gradientUnits="userSpaceOnUse" x1="33.337124" y1="65.349823" x2="91.547112" y2="65.349823"/><linearGradient xlink:href="#linearGradient88" id="linearGradient12" gradientUnits="userSpaceOnUse" x1="33.337124" y1="65.349823" x2="91.547112" y2="65.349823"/><linearGradient xlink:href="#linearGradient88" id="linearGradient14" gradientUnits="userSpaceOnUse" x1="33.337124" y1="65.349823" x2="91.547112" y2="65.349823"/><linearGradient xlink:href="#linearGradient88" id="linearGradient15" gradientUnits="userSpaceOnUse" x1="33.337124" y1="65.349823" x2="91.547112" y2="65.349823"/><linearGradient xlink:href="#linearGradient88" id="linearGradient16" gradientUnits="userSpaceOnUse" x1="33.337124" y1="65.349823" x2="91.547112" y2="65.349823"/><linearGradient xlink:href="#linearGradient1" id="linearGradient17" gradientUnits="userSpaceOnUse" x1="48.783684" y1="35.001259" x2="81.274292" y2="92.250381"/></defs><path style="display:inline;fill:#20232e;fill-opacity:1;fill-rule:evenodd;stroke:currentColor;stroke-width:0;-inkscape-stroke:none" id="rect7" width="128" height="128" x="0" y="0" d="M 33.866667,0 H 94.133333 A 33.866667,33.866667 0 0 1 128,33.866667 V 94.133333 A 33.866667,33.866667 0 0 1 94.133333,128 H 33.866667 A 33.866667,33.866667 0 0 1 0,94.133333 V 33.866667 A 33.866667,33.866667 0 0 1 33.866667,0 Z"/><g id="g88" style="display:none;opacity:0.759;fill:url(#linearGradient89);fill-opacity:1"><path style="opacity:1;fill:url(#linearGradient122);fill-opacity:1;fill-rule:evenodd;stroke:none;stroke-width:0.499999;stroke-linejoin:round;stroke-dasharray:none;stroke-opacity:1" id="path71" d="m 5.0936001,98.804229 c -0.6055128,0.463595 -6.5682166,-2.024011 -7.3241904,-2.124361 -0.7559739,-0.100351 -7.1611712,0.745499 -7.6247669,0.139986 -0.4635958,-0.605513 2.0240102,-6.568217 2.1243607,-7.324191 0.1003505,-0.755974 -0.7454985,-7.161171 -0.1399857,-7.624767 0.6055128,-0.463595 6.5682165,2.024011 7.32419041,2.124361 0.75597383,0.100351 7.16117119,-0.745498 7.62476679,-0.139986 0.4635957,0.605513 -2.0240101,6.568217 -2.1243607,7.324191 -0.1003505,0.755974 0.7454986,7.161171 0.1399858,7.624767 z" transform="matrix(0.26693139,0,0,0.26693139,50.699284,22.451729)"/><path style="display:inline;opacity:1;fill:url(#linearGradient130);fill-opacity:1;fill-rule:evenodd;stroke:none;stroke-width:0.499999;stroke-linejoin:round;stroke-dasharray:none;stroke-opacity:1" id="path71-8" d="m -15.933002,91.795363 c -0.605512,0.463596 -6.568216,-2.02401 -7.32419,-2.12436 -0.755974,-0.100351 -7.161171,0.745498 -7.624767,0.139985 -0.463596,-0.605512 2.02401,-6.568216 2.124361,-7.32419 0.10035,-0.755974 -0.745499,-7.161171 -0.139986,-7.624767 0.605513,-0.463596 6.568217,2.02401 7.324191,2.124361 0.755973,0.10035 7.161171,-0.745499 7.624766,-0.139986 0.463596,0.605513 -2.02401,6.568217 -2.12436,7.32419 -0.100351,0.755974 0.745498,7.161172 0.139985,7.624767 z" transform="matrix(0.18351381,0,0,0.18351381,91.577923,26.503276)"/><path style="opacity:1;fill:url(#linearGradient119);fill-opacity:1;fill-rule:evenodd;stroke:none;stroke-width:0.499999;stroke-linejoin:round;stroke-dasharray:none;stroke-opacity:1" id="path71-2" d="M 13.852216,58.954359 C 13.246703,59.417954 9.3156495,64.545219 8.5596756,64.444868 7.8037017,64.344518 5.346437,58.369247 4.8828414,57.763734 4.4192457,57.158221 -0.70801848,53.227168 -0.60766797,52.471194 -0.50731745,51.71522 5.4679536,49.257955 6.0734663,48.794359 6.6789791,48.330764 10.610033,43.2035 11.366006,43.30385 c 0.755974,0.100351 3.213239,6.075622 3.676835,6.681134 0.463595,0.605513 5.59086,4.536567 5.490509,5.292541 -0.10035,0.755973 -6.075621,3.213238 -6.681134,3.676834 z" transform="matrix(0.26693139,0,0,0.26693139,63.773728,27.81572)"/><path style="opacity:1;fill:url(#linearGradient125);fill-opacity:1;fill-rule:evenodd;stroke:none;stroke-width:0.499999;stroke-linejoin:round;stroke-dasharray:none;stroke-opacity:1" id="path73" d="m 80.354499,47.158141 c 0.227068,0.03784 0.908578,1.865147 1.042379,2.052468 0.1338,0.187321 1.641299,1.424632 1.603455,1.651699 -0.03785,0.227067 -1.865147,0.908578 -2.052468,1.042378 -0.187321,0.133801 -1.424632,1.6413 -1.651699,1.603455 -0.227068,-0.03784 -0.908578,-1.865147 -1.042378,-2.052468 -0.133801,-0.187321 -1.6413,-1.424631 -1.603455,-1.651699 0.03784,-0.227067 1.865147,-0.908577 2.052468,-1.042378 0.187321,-0.1338 1.424631,-1.641299 1.651698,-1.603455 z" transform="translate(-0.18708867,-2.4321526)"/><path style="opacity:1;fill:url(#linearGradient7);fill-opacity:1;fill-rule:evenodd;stroke:none;stroke-width:0.499999;stroke-linejoin:round;stroke-dasharray:none;stroke-opacity:1" id="path74" d="m 74.754189,83.143362 c 0.13935,0 0.490793,1.164218 0.589329,1.262754 0.09853,0.09854 1.262754,0.449979 1.262754,0.589329 0,0.139351 -1.164219,0.490794 -1.262754,0.589329 -0.09854,0.09854 -0.449979,1.262755 -0.58933,1.262755 -0.13935,0 -0.490793,-1.164219 -0.589329,-1.262755 -0.09854,-0.09853 -1.262754,-0.449978 -1.262754,-0.589329 0,-0.13935 1.164219,-0.490793 1.262754,-0.589329 0.09854,-0.09854 0.449979,-1.262754 0.58933,-1.262754 z" transform="translate(-6.8791665,7.1437498)"/><path style="opacity:1;fill:url(#linearGradient9);fill-opacity:1;fill-rule:evenodd;stroke:none;stroke-width:0.499999;stroke-linejoin:round;stroke-dasharray:none;stroke-opacity:1" id="path75" d="m 82.020835,79.904167 c -0.287476,0.07666 -1.932736,-1.864604 -2.19022,-2.013673 -0.257483,-0.14907 -2.760203,-0.609267 -2.836863,-0.896743 -0.07666,-0.287477 1.864604,-1.932737 2.013673,-2.19022 0.149069,-0.257484 0.609267,-2.760203 0.896743,-2.836864 0.287476,-0.07666 1.932736,1.864604 2.19022,2.013674 0.257483,0.149069 2.760203,0.609266 2.836863,0.896743 0.07666,0.287476 -1.864604,1.932736 -2.013673,2.19022 -0.149069,0.257483 -0.609267,2.760203 -0.896743,2.836863 z" transform="matrix(0.60020401,0,0,0.60020401,34.220567,31.946176)"/><path style="opacity:1;fill:url(#linearGradient121);fill-opacity:1;fill-rule:evenodd;stroke:none;stroke-width:0.499999;stroke-linejoin:round;stroke-dasharray:none;stroke-opacity:1" id="path76" d="m 57.13119,43.920831 c -0.159258,0.119444 -1.558809,-0.909854 -1.75588,-0.938008 -0.197071,-0.02815 -1.828844,0.5681 -1.948287,0.408842 -0.119443,-0.159258 0.909855,-1.558809 0.938008,-1.75588 0.02815,-0.197071 -0.568099,-1.828843 -0.408841,-1.948287 0.159258,-0.119443 1.558808,0.909855 1.75588,0.938008 0.197071,0.02815 1.828843,-0.568099 1.948286,-0.408841 0.119444,0.159258 -0.909855,1.558808 -0.938008,1.75588 -0.02815,0.197071 0.568099,1.828843 0.408842,1.948286 z" transform="translate(-1.8708866,-4.4901279)"/><path style="display:inline;opacity:1;fill:url(#linearGradient132);fill-opacity:1;fill-rule:evenodd;stroke:none;stroke-width:0.499999;stroke-linejoin:round;stroke-dasharray:none;stroke-opacity:1" id="path76-0" d="m 59.247855,45.837114 c -0.153321,0.114991 -1.603573,-0.64898 -1.793298,-0.676084 -0.189725,-0.0271 -1.795878,0.300238 -1.910869,0.146917 -0.114991,-0.15332 0.64898,-1.603572 0.676084,-1.793297 0.0271,-0.189725 -0.300238,-1.795879 -0.146917,-1.910869 0.15332,-0.114991 1.603572,0.64898 1.793297,0.676084 0.189725,0.0271 1.795879,-0.300238 1.910869,-0.146917 0.114991,0.15332 -0.64898,1.603572 -0.676084,1.793297 -0.0271,0.189725 0.300238,1.795879 0.146918,1.910869 z" transform="translate(-2.0882149,40.22631)"/><path style="opacity:1;fill:url(#linearGradient10);fill-opacity:1;fill-rule:evenodd;stroke:none;stroke-width:0.499999;stroke-linejoin:round;stroke-dasharray:none;stroke-opacity:1" id="path77" d="m 63.690981,94.807725 c -0.208145,0.132456 -2.060255,-0.836339 -2.301096,-0.889859 -0.240841,-0.05352 -2.328948,0.03967 -2.461404,-0.168474 -0.132456,-0.208145 0.836339,-2.060255 0.889859,-2.301096 0.05352,-0.240842 -0.03967,-2.328948 0.168474,-2.461404 0.208145,-0.132456 2.060255,0.836339 2.301097,0.889859 0.240841,0.05352 2.328947,-0.03967 2.461403,0.168474 0.132456,0.208145 -0.836339,2.060255 -0.889859,2.301096 -0.05352,0.240841 0.03967,2.328948 -0.168474,2.461404 z" transform="translate(8.9958331,-6.8791665)"/><path style="opacity:1;fill:url(#linearGradient12);fill-opacity:1;fill-rule:evenodd;stroke:none;stroke-width:0.499999;stroke-linejoin:round;stroke-dasharray:none;stroke-opacity:1" id="path78" d="m 60.538676,30.285389 c -0.13935,0.05972 -0.989744,-0.953878 -1.130509,-1.010184 -0.140765,-0.05631 -1.455602,0.0912 -1.515324,-0.04815 -0.05972,-0.139351 0.953878,-0.989745 1.010184,-1.13051 0.05631,-0.140765 -0.0912,-1.455602 0.04815,-1.515323 0.139351,-0.05972 0.989745,0.953878 1.13051,1.010184 0.140765,0.05631 1.455602,-0.0912 1.515324,0.04815 0.05972,0.13935 -0.953878,0.989744 -1.010185,1.130509 -0.05631,0.140766 0.0912,1.455602 -0.04815,1.515324 z"/><path style="opacity:1;fill:url(#linearGradient124);fill-opacity:1;fill-rule:evenodd;stroke:none;stroke-width:0.499999;stroke-linejoin:round;stroke-dasharray:none;stroke-opacity:1" id="path79" d="m 44.200091,32.792283 c -0.05972,0.09954 -1.041925,-0.148384 -1.154537,-0.120231 -0.112612,0.02815 -0.862594,0.70912 -0.96213,0.649398 -0.09954,-0.05972 0.148384,-1.041925 0.120231,-1.154537 -0.02815,-0.112612 -0.709119,-0.862594 -0.649397,-0.96213 0.05972,-0.09954 1.041924,0.148384 1.154537,0.120231 0.112612,-0.02815 0.862593,-0.709119 0.962129,-0.649397 0.09954,0.05972 -0.148384,1.041924 -0.12023,1.154536 0.02815,0.112613 0.709119,0.862594 0.649397,0.96213 z" transform="translate(-1.683798,-1.3096206)"/><path style="display:inline;opacity:1;fill:url(#linearGradient112);fill-opacity:1;fill-rule:evenodd;stroke:none;stroke-width:0.499999;stroke-linejoin:round;stroke-dasharray:none;stroke-opacity:1" id="path79-7" d="m 46.169791,33.271354 c -0.05972,0.09954 -1.041925,-0.148384 -1.154537,-0.120231 -0.112612,0.02815 -0.862594,0.709119 -0.96213,0.649398 -0.09954,-0.05972 0.148384,-1.041925 0.120231,-1.154537 -0.02815,-0.112613 -0.709119,-0.862594 -0.649397,-0.96213 0.05972,-0.09954 1.041924,0.148384 1.154536,0.120231 0.112613,-0.02815 0.862594,-0.709119 0.96213,-0.649398 0.09954,0.05972 -0.148384,1.041925 -0.120231,1.154537 0.02815,0.112612 0.70912,0.862594 0.649398,0.96213 z" transform="translate(36.837202,63.813685)"/><path style="opacity:1;fill:url(#linearGradient120);fill-opacity:1;fill-rule:evenodd;stroke:none;stroke-width:0.499999;stroke-linejoin:round;stroke-dasharray:none;stroke-opacity:1" id="path80" d="m 72.965363,34.770014 c -0.119443,-0.03981 -0.08805,-1.138128 -0.144352,-1.25074 -0.05631,-0.112612 -0.953796,-0.746483 -0.913981,-0.865927 0.03981,-0.119443 1.138128,-0.08805 1.25074,-0.144352 0.112612,-0.05631 0.746483,-0.953795 0.865926,-0.913981 0.119444,0.03982 0.08805,1.138128 0.144353,1.250741 0.05631,0.112612 0.953795,0.746483 0.913981,0.865926 -0.03982,0.119443 -1.138128,0.08805 -1.250741,0.144352 -0.112612,0.05631 -0.746483,0.953796 -0.865926,0.913981 z" transform="translate(-0.74835466,2.0579753)"/><path style="opacity:1;fill:url(#linearGradient127);fill-opacity:1;fill-rule:evenodd;stroke:none;stroke-width:0.499999;stroke-linejoin:round;stroke-dasharray:none;stroke-opacity:1" id="path81" d="m 40.846026,90.76699 c -0.07963,0.119443 -1.278355,-0.244588 -1.41912,-0.216435 -0.140766,0.02815 -1.10727,0.82523 -1.226713,0.745601 -0.119444,-0.07963 0.244587,-1.278355 0.216434,-1.41912 -0.02815,-0.140765 -0.82523,-1.10727 -0.745601,-1.226713 0.07963,-0.119443 1.278355,0.244587 1.41912,0.216434 0.140765,-0.02815 1.10727,-0.82523 1.226713,-0.745601 0.119443,0.07963 -0.244587,1.278355 -0.216434,1.419121 0.02815,0.140765 0.82523,1.107269 0.745601,1.226713 z" transform="translate(-1.4967093,-4.6772166)"/><path style="opacity:1;fill:url(#linearGradient128);fill-opacity:1;fill-rule:evenodd;stroke:none;stroke-width:0.499999;stroke-linejoin:round;stroke-dasharray:none;stroke-opacity:1" id="path82" d="m 84.1375,91.281245 c -0.05972,0.05972 -0.709291,-0.28861 -0.79375,-0.28861 -0.08446,0 -0.734028,0.348332 -0.79375,0.28861 -0.05972,-0.05972 0.288611,-0.70929 0.288611,-0.79375 0,-0.08446 -0.348333,-0.734028 -0.288611,-0.79375 0.05972,-0.05972 0.709291,0.288611 0.79375,0.288611 0.08446,0 0.734028,-0.348332 0.79375,-0.288611 0.05972,0.05972 -0.288611,0.709291 -0.288611,0.79375 0,0.08446 0.348333,0.734029 0.288611,0.79375 z" transform="translate(1.7197916,-2.9765624)"/><path style="display:inline;opacity:1;fill:url(#linearGradient114);fill-opacity:1;fill-rule:evenodd;stroke:none;stroke-width:0.499999;stroke-linejoin:round;stroke-dasharray:none;stroke-opacity:1" id="path82-7" d="m 85.493892,92.731181 c -0.05972,0.05972 -0.709291,-0.28861 -0.79375,-0.28861 -0.08446,0 -0.734028,0.348332 -0.79375,0.28861 -0.05972,-0.05972 0.288611,-0.70929 0.288611,-0.79375 0,-0.08446 -0.348333,-0.734028 -0.288611,-0.79375 0.05972,-0.05972 0.709291,0.288611 0.79375,0.288611 0.08446,0 0.734028,-0.348332 0.79375,-0.288611 0.05972,0.05972 -0.288611,0.709291 -0.288611,0.79375 0,0.08446 0.348333,0.734029 0.288611,0.79375 z" transform="translate(-45.966414,-53.66592)"/><path style="opacity:1;fill:url(#linearGradient126);fill-opacity:1;fill-rule:evenodd;stroke:none;stroke-width:0.499999;stroke-linejoin:round;stroke-dasharray:none;stroke-opacity:1" id="path83" d="m 50.400916,77.852541 c -0.134155,0.0575 -1.069827,-0.768889 -1.205345,-0.823096 -0.135517,-0.05421 -1.382993,-0.101082 -1.440488,-0.235237 -0.05749,-0.134156 0.768889,-1.069828 0.823096,-1.205345 0.05421,-0.135518 0.101082,-1.382993 0.235237,-1.440488 0.134156,-0.0575 1.069828,0.768888 1.205345,0.823095 0.135518,0.05421 1.382993,0.101082 1.440489,0.235238 0.0575,0.134155 -0.768889,1.069827 -0.823096,1.205345 -0.05421,0.135517 -0.101082,1.382993 -0.235238,1.440488 z" transform="matrix(1.0783087,0,0,1.0783087,-6.5983471,4.3637842)"/><path style="opacity:1;fill:url(#linearGradient14);fill-opacity:1;fill-rule:evenodd;stroke:none;stroke-width:0.499999;stroke-linejoin:round;stroke-dasharray:none;stroke-opacity:1" id="path84" d="m 55.033329,98.689585 c -0.09954,0.03982 -0.683201,-0.691357 -0.781737,-0.733587 -0.09854,-0.04223 -1.030532,0.03937 -1.070347,-0.06016 -0.03981,-0.09954 0.691358,-0.6832 0.733588,-0.781736 0.04223,-0.09854 -0.03937,-1.030532 0.06016,-1.070347 0.09954,-0.03981 0.683201,0.691358 0.781736,0.733587 0.09854,0.04223 1.030533,-0.03937 1.070347,0.06016 0.03981,0.09954 -0.691357,0.683201 -0.733587,0.781736 -0.04223,0.09854 0.03937,1.030533 -0.06016,1.070347 z"/><path style="opacity:1;fill:url(#linearGradient15);fill-opacity:1;fill-rule:evenodd;stroke:none;stroke-width:0.499999;stroke-linejoin:round;stroke-dasharray:none;stroke-opacity:1" id="path85" d="m 68.27029,24.560853 c -0.07963,0.05972 -0.779405,-0.454928 -0.87794,-0.469004 -0.09854,-0.01408 -0.914422,0.28405 -0.974144,0.204421 -0.05972,-0.07963 0.454928,-0.779405 0.469004,-0.87794 0.01408,-0.09854 -0.284049,-0.914422 -0.20442,-0.974144 0.07963,-0.05972 0.779404,0.454928 0.87794,0.469004 0.09853,0.01408 0.914421,-0.284049 0.974143,-0.20442 0.05972,0.07963 -0.454928,0.779404 -0.469004,0.87794 -0.01408,0.09853 0.28405,0.914421 0.204421,0.974143 z"/><path style="display:inline;opacity:1;fill:url(#linearGradient131);fill-opacity:1;fill-rule:evenodd;stroke:none;stroke-width:0.499999;stroke-linejoin:round;stroke-dasharray:none;stroke-opacity:1" id="path85-9" d="m 68.27029,24.560853 c -0.07963,0.05972 -0.779405,-0.454928 -0.87794,-0.469004 -0.09854,-0.01408 -0.914422,0.28405 -0.974144,0.204421 -0.05972,-0.07963 0.454928,-0.779405 0.469004,-0.87794 0.01408,-0.09854 -0.284049,-0.914422 -0.20442,-0.974144 0.07963,-0.05972 0.779404,0.454928 0.87794,0.469004 0.09853,0.01408 0.914421,-0.284049 0.974143,-0.20442 0.05972,0.07963 -0.454928,0.779404 -0.469004,0.87794 -0.01408,0.09853 0.28405,0.914421 0.204421,0.974143 z" transform="translate(-21.698802,51.379384)"/><path style="display:inline;opacity:1;fill:url(#linearGradient113);fill-opacity:1;fill-rule:evenodd;stroke:none;stroke-width:0.499999;stroke-linejoin:round;stroke-dasharray:none;stroke-opacity:1" id="path85-4" d="m 72.760417,23.812499 c -0.07963,0.05972 -0.779404,-0.454928 -0.87794,-0.469004 -0.09853,-0.01408 -0.914422,0.28405 -0.974143,0.204421 -0.05972,-0.07963 0.454927,-0.779405 0.469004,-0.87794 0.01408,-0.09854 -0.28405,-0.914422 -0.204421,-0.974144 0.07963,-0.05972 0.779404,0.454928 0.87794,0.469004 0.09854,0.01408 0.914422,-0.284049 0.974144,-0.20442 0.05972,0.07963 -0.454928,0.779404 -0.469005,0.87794 -0.01408,0.09853 0.28405,0.914421 0.204421,0.974143 z" transform="translate(-26.188932,74.352738)"/><path style="opacity:1;fill:url(#linearGradient129);fill-opacity:1;fill-rule:evenodd;stroke:none;stroke-width:0.499999;stroke-linejoin:round;stroke-dasharray:none;stroke-opacity:1" id="path86" d="m 73.48802,104.70884 c 0.01991,0.11945 -0.927788,0.587 -0.99817,0.68554 -0.07038,0.0985 -0.205303,1.14664 -0.324746,1.16655 -0.119444,0.0199 -0.586997,-0.92779 -0.685533,-0.99817 -0.09854,-0.0704 -1.146643,-0.20531 -1.166551,-0.32475 -0.01991,-0.11944 0.927788,-0.587 0.998171,-0.68553 0.07038,-0.0985 0.205303,-1.14665 0.324746,-1.16655 0.119443,-0.0199 0.586997,0.92778 0.685533,0.99817 0.09853,0.0704 1.146643,0.2053 1.16655,0.32474 z" transform="translate(3.7417733,-3.9288619)"/><path style="opacity:1;fill:url(#linearGradient123);fill-opacity:1;fill-rule:evenodd;stroke:none;stroke-width:0.499999;stroke-linejoin:round;stroke-dasharray:none;stroke-opacity:1" id="path87" d="m 36.141075,44.543544 c -0.09954,0.01991 -0.516884,-0.761472 -0.601343,-0.817778 -0.08446,-0.05631 -0.96625,-0.14102 -0.986157,-0.240556 -0.01991,-0.09954 0.761471,-0.516884 0.817777,-0.601343 0.05631,-0.08446 0.14102,-0.96625 0.240556,-0.986157 0.09954,-0.01991 0.516884,0.761471 0.601343,0.817777 0.08446,0.05631 0.96625,0.14102 0.986157,0.240557 0.01991,0.09954 -0.761471,0.516883 -0.817777,0.601342 -0.05631,0.08446 -0.14102,0.96625 -0.240556,0.986158 z" transform="translate(2.80633,2.245064)"/><path style="opacity:1;fill:url(#linearGradient16);fill-opacity:1;fill-rule:evenodd;stroke:none;stroke-width:0.499999;stroke-linejoin:round;stroke-dasharray:none;stroke-opacity:1" id="path88" d="m 97.377677,41.127799 c -0.03982,0.07963 -0.805495,-0.05218 -0.889954,-0.02403 -0.08446,0.02815 -0.617917,0.593009 -0.697546,0.553194 -0.07963,-0.03981 0.05218,-0.805494 0.02403,-0.889953 -0.02815,-0.08446 -0.593008,-0.617918 -0.553194,-0.697547 0.03982,-0.07963 0.805495,0.05218 0.889954,0.02403 0.08446,-0.02815 0.617917,-0.593009 0.697546,-0.553194 0.07963,0.03981 -0.05218,0.805494 -0.02403,0.889953 0.02815,0.08446 0.593008,0.617918 0.553194,0.697547 z"/><path style="display:inline;opacity:1;fill:url(#linearGradient118);fill-opacity:1;fill-rule:evenodd;stroke:none;stroke-width:0.499999;stroke-linejoin:round;stroke-dasharray:none;stroke-opacity:1" id="path85-3" d="m 72.760417,23.812499 c -0.07963,0.05972 -0.779404,-0.454928 -0.87794,-0.469004 -0.09853,-0.01408 -0.914422,0.28405 -0.974143,0.204421 -0.05972,-0.07963 0.454927,-0.779405 0.469004,-0.87794 0.01408,-0.09854 -0.28405,-0.914422 -0.204421,-0.974144 0.07963,-0.05972 0.779404,0.454928 0.87794,0.469004 0.09854,0.01408 0.914422,-0.284049 0.974144,-0.20442 0.05972,0.07963 -0.454928,0.779404 -0.469005,0.87794 -0.01408,0.09853 0.28405,0.914421 0.204421,0.974143 z" transform="translate(-9.5201817,74.352738)"/><path style="display:inline;opacity:1;fill:url(#linearGradient115);fill-opacity:1;fill-rule:evenodd;stroke:none;stroke-width:0.499999;stroke-linejoin:round;stroke-dasharray:none;stroke-opacity:1" id="path82-9" d="m 96.485347,80.804286 c -0.05972,0.05972 -0.709291,-0.28861 -0.79375,-0.28861 -0.08446,0 -0.734028,0.348332 -0.79375,0.28861 -0.05972,-0.05972 0.288611,-0.709291 0.288611,-0.79375 0,-0.08446 -0.348333,-0.734028 -0.288611,-0.79375 0.05972,-0.05972 0.709291,0.288611 0.79375,0.288611 0.08446,0 0.734028,-0.348332 0.79375,-0.288611 0.05972,0.05972 -0.288611,0.709291 -0.288611,0.79375 0,0.08446 0.348333,0.734029 0.288611,0.79375 z" transform="translate(-16.661863,-49.20561)"/><circle style="display:inline;opacity:1;fill:url(#radialGradient111);fill-opacity:1;fill-rule:evenodd;stroke:none;stroke-width:0.444649;stroke-linejoin:round;stroke-dasharray:none;stroke-opacity:1" id="path110" cx="64" cy="64" r="48"/></g><g id="g3" style="display:inline;fill:url(#linearGradient5);stroke:none;stroke-width:0;stroke-linecap:round;stroke-linejoin:miter;stroke-dasharray:none;stroke-opacity:0.255474"><path style="fill:url(#linearGradient13);fill-opacity:1;fill-rule:evenodd;stroke:none;stroke-width:0;stroke-linecap:round;stroke-linejoin:miter;stroke-dasharray:none;stroke-opacity:0.255474" d="M 59.767316,2.443241 12.233983,29.881009 C 9.6140211,31.393335 8,34.188616 8,37.213732 V 59.533333 C 8,64.209344 11.790656,68 16.466667,68 H 32 V 80 L 45.754936,66.245064 c 1.239915,-1.239915 1.239915,-3.250213 0,-4.490128 L 32,48 V 60 H 19.175 C 17.421496,60 16,58.578504 16,56.825 V 38.818886 c 0,-1.126696 0.597114,-2.169002 1.569053,-2.738897 L 62.04694,10.000467 c 0.985024,-0.5775668 2.204325,-0.5817085 3.193251,-0.010846 l 51.584939,29.77767 C 118.23624,40.581862 120,39.563472 120,37.934128 v -3.164762 c 0,-1.512558 -0.80701,-2.910198 -2.11699,-3.666362 L 68.232684,2.443241 c -2.619266,-1.51192422 -5.846102,-1.51192422 -8.465368,0 z M 68.232684,125.55676 115.76602,98.118991 C 118.38598,96.606665 120,93.811384 120,90.786268 V 68.466667 C 120,63.790656 116.20934,60 111.53333,60 H 96 V 48 L 82.245064,61.754936 c -1.239915,1.239915 -1.239915,3.250213 0,4.490128 L 96,80 V 68 h 12.825 c 1.7535,0 3.175,1.421496 3.175,3.175 v 18.006114 c 0,1.126696 -0.59711,2.169002 -1.56905,2.738897 L 65.95306,117.99953 c -0.985024,0.57757 -2.204325,0.58171 -3.193251,0.0109 L 11.174869,88.232709 C 9.7637581,87.418138 8,88.436528 8,90.065872 v 3.164762 c 0,1.512558 0.8070106,2.910198 2.116992,3.666362 l 49.650324,28.659764 c 2.619266,1.51192 5.846102,1.51192 8.465368,0 z" id="path1"/><circle style="fill:url(#linearGradient11);fill-rule:evenodd;stroke:none;stroke-width:0;stroke-linecap:round;stroke-linejoin:miter;stroke-dasharray:none;stroke-opacity:0.255474" id="path2" cx="64" cy="64" r="16"/></g><g id="g4" style="display:inline;fill:none;stroke:url(#linearGradient2);stroke-width:1.5;stroke-linecap:round;stroke-linejoin:round;stroke-dasharray:none;stroke-opacity:1"><path style="opacity:1;fill:none;fill-opacity:1;fill-rule:evenodd;stroke:url(#linearGradient17);stroke-width:0.5;stroke-linecap:round;stroke-linejoin:round;stroke-dasharray:none;stroke-opacity:1" d="M 59.767316,2.443241 12.233983,29.881009 C 9.6140211,31.393335 8,34.188616 8,37.213732 V 59.533333 C 8,64.209344 11.790656,68 16.466667,68 H 32 V 80 L 45.754936,66.245064 c 1.239915,-1.239915 1.239915,-3.250213 0,-4.490128 L 32,48 V 60 H 19.175 C 17.421496,60 16,58.578504 16,56.825 V 38.818886 c 0,-1.126696 0.597114,-2.169002 1.569053,-2.738897 L 62.04694,10.000467 c 0.985024,-0.5775668 2.204325,-0.5817085 3.193251,-0.010846 l 51.584939,29.77767 C 118.23624,40.581862 120,39.563472 120,37.934128 v -3.164762 c 0,-1.512558 -0.80701,-2.910198 -2.11699,-3.666362 L 68.232684,2.443241 c -2.619266,-1.51192422 -5.846102,-1.51192422 -8.465368,0 z M 68.232684,125.55676 115.76602,98.118991 C 118.38598,96.606665 120,93.811384 120,90.786268 V 68.466667 C 120,63.790656 116.20934,60 111.53333,60 H 96 V 48 L 82.245064,61.754936 c -1.239915,1.239915 -1.239915,3.250213 0,4.490128 L 96,80 V 68 h 12.825 c 1.7535,0 3.175,1.421496 3.175,3.175 v 18.006114 c 0,1.126696 -0.59711,2.169002 -1.56905,2.738897 L 65.95306,117.99953 c -0.985024,0.57757 -2.204325,0.58171 -3.193251,0.0109 L 11.174869,88.232709 C 9.7637581,87.418138 8,88.436528 8,90.065872 v 3.164762 c 0,1.512558 0.8070106,2.910198 2.116992,3.666362 l 49.650324,28.659764 c 2.619266,1.51192 5.846102,1.51192 8.465368,0 z" id="path3"/><ellipse style="opacity:1;mix-blend-mode:normal;fill:none;fill-rule:evenodd;stroke:url(#linearGradient3);stroke-width:2.102;stroke-linecap:round;stroke-linejoin:round;stroke-dasharray:none;stroke-opacity:1" id="circle3" cx="64" cy="64" rx="14.948905" ry="14.948907"/><circle style="opacity:0.707237;mix-blend-mode:normal;fill:url(#radialGradient9);fill-rule:evenodd;stroke:none;stroke-width:0;stroke-linejoin:round;stroke-dasharray:none;stroke-opacity:1" id="path6" cx="64" cy="64" r="16"/></g></svg>