<?xml version="1.0" encoding="UTF-8" standalone="no"?><!--Created with Inkscape (http://www.inkscape.org/)--><svg width="420mm" height="128mm" viewBox="0 0 420 128" version="1.1" id="svg1" xml:space="preserve" xmlns:xlink="http://www.w3.org/1999/xlink" xmlns="http://www.w3.org/2000/svg" xmlns:svg="http://www.w3.org/2000/svg"><defs id="defs1"><linearGradient id="linearGradient32"><stop style="stop-color:#86eaf8;stop-opacity:1" offset="0" id="stop32"/><stop style="stop-color:#8968f6;stop-opacity:1" offset="1" id="stop33"/></linearGradient><linearGradient id="linearGradient30"><stop style="stop-color:#7aecfa;stop-opacity:1" offset="0" id="stop30"/><stop style="stop-color:#a58cf9;stop-opacity:1" offset="1" id="stop31"/></linearGradient><linearGradient id="linearGradient110"><stop style="stop-color:#20232e;stop-opacity:0" offset="0.43006262" id="stop110"/><stop style="stop-color:#20232e;stop-opacity:0.49803922" offset="0.57828808" id="stop112"/><stop style="stop-color:#20232e;stop-opacity:1" offset="1" id="stop111"/></linearGradient><linearGradient id="linearGradient88"><stop style="stop-color:#96f5ff;stop-opacity:1" offset="0" id="stop88"/><stop style="stop-color:#9c5dff;stop-opacity:1" offset="1" id="stop89"/></linearGradient><linearGradient id="linearGradient8"><stop style="stop-color:#ffffff;stop-opacity:1" offset="0" id="stop8"/><stop style="stop-color:#ccfcff;stop-opacity:1" offset="0.14845939" id="stop12"/><stop style="stop-color:#c3fbff;stop-opacity:0.68095237" offset="0.29131654" id="stop13"/><stop style="stop-color:#8afaff;stop-opacity:0.50588232" offset="0.50140059" id="stop11"/><stop style="stop-color:#ffffff;stop-opacity:0" offset="1" id="stop9"/></linearGradient><linearGradient id="linearGradient6"><stop style="stop-color:#80fbfd;stop-opacity:1" offset="0" id="stop3"/><stop style="stop-color:#9482fe;stop-opacity:1" offset="1" id="stop6"/></linearGradient><linearGradient id="linearGradient1"><stop style="stop-color:#75ebfd;stop-opacity:1" offset="0" id="stop1"/><stop style="stop-color:#9f8df5;stop-opacity:1" offset="1" id="stop2"/></linearGradient><linearGradient id="linearGradient4"><stop style="stop-color:#34e2f7;stop-opacity:1" offset="0" id="stop4"/><stop style="stop-color:#6d45f6;stop-opacity:1" offset="1" id="stop5"/></linearGradient><linearGradient xlink:href="#linearGradient4" id="linearGradient5" x1="40.412125" y1="24.952206" x2="85.3134" y2="103.71866" gradientUnits="userSpaceOnUse"/><linearGradient xlink:href="#linearGradient1" id="linearGradient2" x1="48.783684" y1="35.001259" x2="81.274292" y2="92.250381" gradientUnits="userSpaceOnUse"/><linearGradient xlink:href="#linearGradient6" id="linearGradient3" gradientUnits="userSpaceOnUse" x1="55.992443" y1="52.021938" x2="71.462364" y2="75.429947" gradientTransform="matrix(0.93430655,0,0,0.93430672,4.20438,4.2043719)"/><radialGradient xlink:href="#linearGradient8" id="radialGradient9" cx="57.741875" cy="57.99715" fx="57.741875" fy="57.99715" r="5.7062044" gradientUnits="userSpaceOnUse" gradientTransform="matrix(0,4.181011,-3.9016388,0,286.35505,-185.27713)"/><linearGradient xlink:href="#linearGradient4" id="linearGradient11" gradientUnits="userSpaceOnUse" x1="54.443771" y1="47.777023" x2="72.965546" y2="80.332573"/><linearGradient xlink:href="#linearGradient4" id="linearGradient13" gradientUnits="userSpaceOnUse" x1="40.412125" y1="24.952206" x2="86.9972" y2="102.59612"/><linearGradient xlink:href="#linearGradient88" id="linearGradient89" x1="33.337124" y1="65.349823" x2="91.547112" y2="65.349823" gradientUnits="userSpaceOnUse"/><radialGradient xlink:href="#linearGradient110" id="radialGradient111" cx="64" cy="64" fx="64" fy="64" r="48" gradientUnits="userSpaceOnUse"/><linearGradient xlink:href="#linearGradient88" id="linearGradient112" gradientUnits="userSpaceOnUse" x1="33.337124" y1="65.349823" x2="91.547112" y2="65.349823"/><linearGradient xlink:href="#linearGradient88" id="linearGradient113" gradientUnits="userSpaceOnUse" x1="33.337124" y1="65.349823" x2="91.547112" y2="65.349823"/><linearGradient xlink:href="#linearGradient88" id="linearGradient114" gradientUnits="userSpaceOnUse" x1="33.337124" y1="65.349823" x2="91.547112" y2="65.349823"/><linearGradient xlink:href="#linearGradient88" id="linearGradient115" gradientUnits="userSpaceOnUse" x1="33.337124" y1="65.349823" x2="91.547112" y2="65.349823"/><linearGradient xlink:href="#linearGradient88" id="linearGradient118" gradientUnits="userSpaceOnUse" x1="33.337124" y1="65.349823" x2="91.547112" y2="65.349823"/><linearGradient xlink:href="#linearGradient88" id="linearGradient119" gradientUnits="userSpaceOnUse" x1="33.337124" y1="65.349823" x2="91.547112" y2="65.349823"/><linearGradient xlink:href="#linearGradient88" id="linearGradient120" gradientUnits="userSpaceOnUse" x1="33.337124" y1="65.349823" x2="91.547112" y2="65.349823"/><linearGradient xlink:href="#linearGradient88" id="linearGradient121" gradientUnits="userSpaceOnUse" x1="33.337124" y1="65.349823" x2="91.547112" y2="65.349823"/><linearGradient xlink:href="#linearGradient88" id="linearGradient122" gradientUnits="userSpaceOnUse" x1="33.337124" y1="65.349823" x2="91.547112" y2="65.349823"/><linearGradient xlink:href="#linearGradient88" id="linearGradient123" gradientUnits="userSpaceOnUse" x1="33.337124" y1="65.349823" x2="91.547112" y2="65.349823"/><linearGradient xlink:href="#linearGradient88" id="linearGradient124" gradientUnits="userSpaceOnUse" x1="33.337124" y1="65.349823" x2="91.547112" y2="65.349823"/><linearGradient xlink:href="#linearGradient88" id="linearGradient125" gradientUnits="userSpaceOnUse" x1="33.337124" y1="65.349823" x2="91.547112" y2="65.349823"/><linearGradient xlink:href="#linearGradient88" id="linearGradient126" gradientUnits="userSpaceOnUse" x1="33.337124" y1="65.349823" x2="91.547112" y2="65.349823"/><linearGradient xlink:href="#linearGradient88" id="linearGradient127" gradientUnits="userSpaceOnUse" x1="33.337124" y1="65.349823" x2="91.547112" y2="65.349823"/><linearGradient xlink:href="#linearGradient88" id="linearGradient128" gradientUnits="userSpaceOnUse" x1="33.337124" y1="65.349823" x2="91.547112" y2="65.349823"/><linearGradient xlink:href="#linearGradient88" id="linearGradient129" gradientUnits="userSpaceOnUse" x1="33.337124" y1="65.349823" x2="91.547112" y2="65.349823"/><linearGradient xlink:href="#linearGradient88" id="linearGradient130" gradientUnits="userSpaceOnUse" x1="33.337124" y1="65.349823" x2="91.547112" y2="65.349823"/><linearGradient xlink:href="#linearGradient88" id="linearGradient131" gradientUnits="userSpaceOnUse" x1="33.337124" y1="65.349823" x2="91.547112" y2="65.349823"/><linearGradient xlink:href="#linearGradient88" id="linearGradient132" gradientUnits="userSpaceOnUse" x1="33.337124" y1="65.349823" x2="91.547112" y2="65.349823"/><linearGradient xlink:href="#linearGradient88" id="linearGradient7" gradientUnits="userSpaceOnUse" x1="33.337124" y1="65.349823" x2="91.547112" y2="65.349823"/><linearGradient xlink:href="#linearGradient88" id="linearGradient9" gradientUnits="userSpaceOnUse" x1="33.337124" y1="65.349823" x2="91.547112" y2="65.349823"/><linearGradient xlink:href="#linearGradient88" id="linearGradient10" gradientUnits="userSpaceOnUse" x1="33.337124" y1="65.349823" x2="91.547112" y2="65.349823"/><linearGradient xlink:href="#linearGradient88" id="linearGradient12" gradientUnits="userSpaceOnUse" x1="33.337124" y1="65.349823" x2="91.547112" y2="65.349823"/><linearGradient xlink:href="#linearGradient88" id="linearGradient14" gradientUnits="userSpaceOnUse" x1="33.337124" y1="65.349823" x2="91.547112" y2="65.349823"/><linearGradient xlink:href="#linearGradient88" id="linearGradient15" gradientUnits="userSpaceOnUse" x1="33.337124" y1="65.349823" x2="91.547112" y2="65.349823"/><linearGradient xlink:href="#linearGradient88" id="linearGradient16" gradientUnits="userSpaceOnUse" x1="33.337124" y1="65.349823" x2="91.547112" y2="65.349823"/><linearGradient xlink:href="#linearGradient1" id="linearGradient17" gradientUnits="userSpaceOnUse" x1="48.783684" y1="35.001259" x2="81.274292" y2="92.250381"/><linearGradient xlink:href="#linearGradient4" id="linearGradient48" x1="266.28873" y1="42.615116" x2="266.28873" y2="119.80167" gradientUnits="userSpaceOnUse"/><linearGradient xlink:href="#linearGradient4" id="linearGradient46" x1="283.78961" y1="-4.5415778" x2="307.52515" y2="84.040588" gradientUnits="userSpaceOnUse"/><linearGradient xlink:href="#linearGradient30" id="linearGradient31" x1="268.19385" y1="6.1326728" x2="299.86124" y2="60.982182" gradientUnits="userSpaceOnUse"/><linearGradient xlink:href="#linearGradient32" id="linearGradient33" x1="260.02921" y1="52.206646" x2="260.02921" y2="119.69474" gradientUnits="userSpaceOnUse"/></defs><g id="g88" style="display:none;opacity:0.759;fill:url(#linearGradient89);fill-opacity:1"><path style="opacity:1;fill:url(#linearGradient122);fill-opacity:1;fill-rule:evenodd;stroke:none;stroke-width:0.499999;stroke-linejoin:round;stroke-dasharray:none;stroke-opacity:1" id="path71" d="m 5.0936001,98.804229 c -0.6055128,0.463595 -6.5682166,-2.024011 -7.3241904,-2.124361 -0.7559739,-0.100351 -7.1611712,0.745499 -7.6247669,0.139986 -0.4635958,-0.605513 2.0240102,-6.568217 2.1243607,-7.324191 0.1003505,-0.755974 -0.7454985,-7.161171 -0.1399857,-7.624767 0.6055128,-0.463595 6.5682165,2.024011 7.32419041,2.124361 0.75597383,0.100351 7.16117119,-0.745498 7.62476679,-0.139986 0.4635957,0.605513 -2.0240101,6.568217 -2.1243607,7.324191 -0.1003505,0.755974 0.7454986,7.161171 0.1399858,7.624767 z" transform="matrix(0.26693139,0,0,0.26693139,50.699284,22.451729)"/><path style="display:inline;opacity:1;fill:url(#linearGradient130);fill-opacity:1;fill-rule:evenodd;stroke:none;stroke-width:0.499999;stroke-linejoin:round;stroke-dasharray:none;stroke-opacity:1" id="path71-8" d="m -15.933002,91.795363 c -0.605512,0.463596 -6.568216,-2.02401 -7.32419,-2.12436 -0.755974,-0.100351 -7.161171,0.745498 -7.624767,0.139985 -0.463596,-0.605512 2.02401,-6.568216 2.124361,-7.32419 0.10035,-0.755974 -0.745499,-7.161171 -0.139986,-7.624767 0.605513,-0.463596 6.568217,2.02401 7.324191,2.124361 0.755973,0.10035 7.161171,-0.745499 7.624766,-0.139986 0.463596,0.605513 -2.02401,6.568217 -2.12436,7.32419 -0.100351,0.755974 0.745498,7.161172 0.139985,7.624767 z" transform="matrix(0.18351381,0,0,0.18351381,91.577923,26.503276)"/><path style="opacity:1;fill:url(#linearGradient119);fill-opacity:1;fill-rule:evenodd;stroke:none;stroke-width:0.499999;stroke-linejoin:round;stroke-dasharray:none;stroke-opacity:1" id="path71-2" d="M 13.852216,58.954359 C 13.246703,59.417954 9.3156495,64.545219 8.5596756,64.444868 7.8037017,64.344518 5.346437,58.369247 4.8828414,57.763734 4.4192457,57.158221 -0.70801848,53.227168 -0.60766797,52.471194 -0.50731745,51.71522 5.4679536,49.257955 6.0734663,48.794359 6.6789791,48.330764 10.610033,43.2035 11.366006,43.30385 c 0.755974,0.100351 3.213239,6.075622 3.676835,6.681134 0.463595,0.605513 5.59086,4.536567 5.490509,5.292541 -0.10035,0.755973 -6.075621,3.213238 -6.681134,3.676834 z" transform="matrix(0.26693139,0,0,0.26693139,63.773728,27.81572)"/><path style="opacity:1;fill:url(#linearGradient125);fill-opacity:1;fill-rule:evenodd;stroke:none;stroke-width:0.499999;stroke-linejoin:round;stroke-dasharray:none;stroke-opacity:1" id="path73" d="m 80.354499,47.158141 c 0.227068,0.03784 0.908578,1.865147 1.042379,2.052468 0.1338,0.187321 1.641299,1.424632 1.603455,1.651699 -0.03785,0.227067 -1.865147,0.908578 -2.052468,1.042378 -0.187321,0.133801 -1.424632,1.6413 -1.651699,1.603455 -0.227068,-0.03784 -0.908578,-1.865147 -1.042378,-2.052468 -0.133801,-0.187321 -1.6413,-1.424631 -1.603455,-1.651699 0.03784,-0.227067 1.865147,-0.908577 2.052468,-1.042378 0.187321,-0.1338 1.424631,-1.641299 1.651698,-1.603455 z" transform="translate(-0.18708867,-2.4321526)"/><path style="opacity:1;fill:url(#linearGradient7);fill-opacity:1;fill-rule:evenodd;stroke:none;stroke-width:0.499999;stroke-linejoin:round;stroke-dasharray:none;stroke-opacity:1" id="path74" d="m 74.754189,83.143362 c 0.13935,0 0.490793,1.164218 0.589329,1.262754 0.09853,0.09854 1.262754,0.449979 1.262754,0.589329 0,0.139351 -1.164219,0.490794 -1.262754,0.589329 -0.09854,0.09854 -0.449979,1.262755 -0.58933,1.262755 -0.13935,0 -0.490793,-1.164219 -0.589329,-1.262755 -0.09854,-0.09853 -1.262754,-0.449978 -1.262754,-0.589329 0,-0.13935 1.164219,-0.490793 1.262754,-0.589329 0.09854,-0.09854 0.449979,-1.262754 0.58933,-1.262754 z" transform="translate(-6.8791665,7.1437498)"/><path style="opacity:1;fill:url(#linearGradient9);fill-opacity:1;fill-rule:evenodd;stroke:none;stroke-width:0.499999;stroke-linejoin:round;stroke-dasharray:none;stroke-opacity:1" id="path75" d="m 82.020835,79.904167 c -0.287476,0.07666 -1.932736,-1.864604 -2.19022,-2.013673 -0.257483,-0.14907 -2.760203,-0.609267 -2.836863,-0.896743 -0.07666,-0.287477 1.864604,-1.932737 2.013673,-2.19022 0.149069,-0.257484 0.609267,-2.760203 0.896743,-2.836864 0.287476,-0.07666 1.932736,1.864604 2.19022,2.013674 0.257483,0.149069 2.760203,0.609266 2.836863,0.896743 0.07666,0.287476 -1.864604,1.932736 -2.013673,2.19022 -0.149069,0.257483 -0.609267,2.760203 -0.896743,2.836863 z" transform="matrix(0.60020401,0,0,0.60020401,34.220567,31.946176)"/><path style="opacity:1;fill:url(#linearGradient121);fill-opacity:1;fill-rule:evenodd;stroke:none;stroke-width:0.499999;stroke-linejoin:round;stroke-dasharray:none;stroke-opacity:1" id="path76" d="m 57.13119,43.920831 c -0.159258,0.119444 -1.558809,-0.909854 -1.75588,-0.938008 -0.197071,-0.02815 -1.828844,0.5681 -1.948287,0.408842 -0.119443,-0.159258 0.909855,-1.558809 0.938008,-1.75588 0.02815,-0.197071 -0.568099,-1.828843 -0.408841,-1.948287 0.159258,-0.119443 1.558808,0.909855 1.75588,0.938008 0.197071,0.02815 1.828843,-0.568099 1.948286,-0.408841 0.119444,0.159258 -0.909855,1.558808 -0.938008,1.75588 -0.02815,0.197071 0.568099,1.828843 0.408842,1.948286 z" transform="translate(-1.8708866,-4.4901279)"/><path style="display:inline;opacity:1;fill:url(#linearGradient132);fill-opacity:1;fill-rule:evenodd;stroke:none;stroke-width:0.499999;stroke-linejoin:round;stroke-dasharray:none;stroke-opacity:1" id="path76-0" d="m 59.247855,45.837114 c -0.153321,0.114991 -1.603573,-0.64898 -1.793298,-0.676084 -0.189725,-0.0271 -1.795878,0.300238 -1.910869,0.146917 -0.114991,-0.15332 0.64898,-1.603572 0.676084,-1.793297 0.0271,-0.189725 -0.300238,-1.795879 -0.146917,-1.910869 0.15332,-0.114991 1.603572,0.64898 1.793297,0.676084 0.189725,0.0271 1.795879,-0.300238 1.910869,-0.146917 0.114991,0.15332 -0.64898,1.603572 -0.676084,1.793297 -0.0271,0.189725 0.300238,1.795879 0.146918,1.910869 z" transform="translate(-2.0882149,40.22631)"/><path style="opacity:1;fill:url(#linearGradient10);fill-opacity:1;fill-rule:evenodd;stroke:none;stroke-width:0.499999;stroke-linejoin:round;stroke-dasharray:none;stroke-opacity:1" id="path77" d="m 63.690981,94.807725 c -0.208145,0.132456 -2.060255,-0.836339 -2.301096,-0.889859 -0.240841,-0.05352 -2.328948,0.03967 -2.461404,-0.168474 -0.132456,-0.208145 0.836339,-2.060255 0.889859,-2.301096 0.05352,-0.240842 -0.03967,-2.328948 0.168474,-2.461404 0.208145,-0.132456 2.060255,0.836339 2.301097,0.889859 0.240841,0.05352 2.328947,-0.03967 2.461403,0.168474 0.132456,0.208145 -0.836339,2.060255 -0.889859,2.301096 -0.05352,0.240841 0.03967,2.328948 -0.168474,2.461404 z" transform="translate(8.9958331,-6.8791665)"/><path style="opacity:1;fill:url(#linearGradient12);fill-opacity:1;fill-rule:evenodd;stroke:none;stroke-width:0.499999;stroke-linejoin:round;stroke-dasharray:none;stroke-opacity:1" id="path78" d="m 60.538676,30.285389 c -0.13935,0.05972 -0.989744,-0.953878 -1.130509,-1.010184 -0.140765,-0.05631 -1.455602,0.0912 -1.515324,-0.04815 -0.05972,-0.139351 0.953878,-0.989745 1.010184,-1.13051 0.05631,-0.140765 -0.0912,-1.455602 0.04815,-1.515323 0.139351,-0.05972 0.989745,0.953878 1.13051,1.010184 0.140765,0.05631 1.455602,-0.0912 1.515324,0.04815 0.05972,0.13935 -0.953878,0.989744 -1.010185,1.130509 -0.05631,0.140766 0.0912,1.455602 -0.04815,1.515324 z"/><path style="opacity:1;fill:url(#linearGradient124);fill-opacity:1;fill-rule:evenodd;stroke:none;stroke-width:0.499999;stroke-linejoin:round;stroke-dasharray:none;stroke-opacity:1" id="path79" d="m 44.200091,32.792283 c -0.05972,0.09954 -1.041925,-0.148384 -1.154537,-0.120231 -0.112612,0.02815 -0.862594,0.70912 -0.96213,0.649398 -0.09954,-0.05972 0.148384,-1.041925 0.120231,-1.154537 -0.02815,-0.112612 -0.709119,-0.862594 -0.649397,-0.96213 0.05972,-0.09954 1.041924,0.148384 1.154537,0.120231 0.112612,-0.02815 0.862593,-0.709119 0.962129,-0.649397 0.09954,0.05972 -0.148384,1.041924 -0.12023,1.154536 0.02815,0.112613 0.709119,0.862594 0.649397,0.96213 z" transform="translate(-1.683798,-1.3096206)"/><path style="display:inline;opacity:1;fill:url(#linearGradient112);fill-opacity:1;fill-rule:evenodd;stroke:none;stroke-width:0.499999;stroke-linejoin:round;stroke-dasharray:none;stroke-opacity:1" id="path79-7" d="m 46.169791,33.271354 c -0.05972,0.09954 -1.041925,-0.148384 -1.154537,-0.120231 -0.112612,0.02815 -0.862594,0.709119 -0.96213,0.649398 -0.09954,-0.05972 0.148384,-1.041925 0.120231,-1.154537 -0.02815,-0.112613 -0.709119,-0.862594 -0.649397,-0.96213 0.05972,-0.09954 1.041924,0.148384 1.154536,0.120231 0.112613,-0.02815 0.862594,-0.709119 0.96213,-0.649398 0.09954,0.05972 -0.148384,1.041925 -0.120231,1.154537 0.02815,0.112612 0.70912,0.862594 0.649398,0.96213 z" transform="translate(36.837202,63.813685)"/><path style="opacity:1;fill:url(#linearGradient120);fill-opacity:1;fill-rule:evenodd;stroke:none;stroke-width:0.499999;stroke-linejoin:round;stroke-dasharray:none;stroke-opacity:1" id="path80" d="m 72.965363,34.770014 c -0.119443,-0.03981 -0.08805,-1.138128 -0.144352,-1.25074 -0.05631,-0.112612 -0.953796,-0.746483 -0.913981,-0.865927 0.03981,-0.119443 1.138128,-0.08805 1.25074,-0.144352 0.112612,-0.05631 0.746483,-0.953795 0.865926,-0.913981 0.119444,0.03982 0.08805,1.138128 0.144353,1.250741 0.05631,0.112612 0.953795,0.746483 0.913981,0.865926 -0.03982,0.119443 -1.138128,0.08805 -1.250741,0.144352 -0.112612,0.05631 -0.746483,0.953796 -0.865926,0.913981 z" transform="translate(-0.74835466,2.0579753)"/><path style="opacity:1;fill:url(#linearGradient127);fill-opacity:1;fill-rule:evenodd;stroke:none;stroke-width:0.499999;stroke-linejoin:round;stroke-dasharray:none;stroke-opacity:1" id="path81" d="m 40.846026,90.76699 c -0.07963,0.119443 -1.278355,-0.244588 -1.41912,-0.216435 -0.140766,0.02815 -1.10727,0.82523 -1.226713,0.745601 -0.119444,-0.07963 0.244587,-1.278355 0.216434,-1.41912 -0.02815,-0.140765 -0.82523,-1.10727 -0.745601,-1.226713 0.07963,-0.119443 1.278355,0.244587 1.41912,0.216434 0.140765,-0.02815 1.10727,-0.82523 1.226713,-0.745601 0.119443,0.07963 -0.244587,1.278355 -0.216434,1.419121 0.02815,0.140765 0.82523,1.107269 0.745601,1.226713 z" transform="translate(-1.4967093,-4.6772166)"/><path style="opacity:1;fill:url(#linearGradient128);fill-opacity:1;fill-rule:evenodd;stroke:none;stroke-width:0.499999;stroke-linejoin:round;stroke-dasharray:none;stroke-opacity:1" id="path82" d="m 84.1375,91.281245 c -0.05972,0.05972 -0.709291,-0.28861 -0.79375,-0.28861 -0.08446,0 -0.734028,0.348332 -0.79375,0.28861 -0.05972,-0.05972 0.288611,-0.70929 0.288611,-0.79375 0,-0.08446 -0.348333,-0.734028 -0.288611,-0.79375 0.05972,-0.05972 0.709291,0.288611 0.79375,0.288611 0.08446,0 0.734028,-0.348332 0.79375,-0.288611 0.05972,0.05972 -0.288611,0.709291 -0.288611,0.79375 0,0.08446 0.348333,0.734029 0.288611,0.79375 z" transform="translate(1.7197916,-2.9765624)"/><path style="display:inline;opacity:1;fill:url(#linearGradient114);fill-opacity:1;fill-rule:evenodd;stroke:none;stroke-width:0.499999;stroke-linejoin:round;stroke-dasharray:none;stroke-opacity:1" id="path82-7" d="m 85.493892,92.731181 c -0.05972,0.05972 -0.709291,-0.28861 -0.79375,-0.28861 -0.08446,0 -0.734028,0.348332 -0.79375,0.28861 -0.05972,-0.05972 0.288611,-0.70929 0.288611,-0.79375 0,-0.08446 -0.348333,-0.734028 -0.288611,-0.79375 0.05972,-0.05972 0.709291,0.288611 0.79375,0.288611 0.08446,0 0.734028,-0.348332 0.79375,-0.288611 0.05972,0.05972 -0.288611,0.709291 -0.288611,0.79375 0,0.08446 0.348333,0.734029 0.288611,0.79375 z" transform="translate(-45.966414,-53.66592)"/><path style="opacity:1;fill:url(#linearGradient126);fill-opacity:1;fill-rule:evenodd;stroke:none;stroke-width:0.499999;stroke-linejoin:round;stroke-dasharray:none;stroke-opacity:1" id="path83" d="m 50.400916,77.852541 c -0.134155,0.0575 -1.069827,-0.768889 -1.205345,-0.823096 -0.135517,-0.05421 -1.382993,-0.101082 -1.440488,-0.235237 -0.05749,-0.134156 0.768889,-1.069828 0.823096,-1.205345 0.05421,-0.135518 0.101082,-1.382993 0.235237,-1.440488 0.134156,-0.0575 1.069828,0.768888 1.205345,0.823095 0.135518,0.05421 1.382993,0.101082 1.440489,0.235238 0.0575,0.134155 -0.768889,1.069827 -0.823096,1.205345 -0.05421,0.135517 -0.101082,1.382993 -0.235238,1.440488 z" transform="matrix(1.0783087,0,0,1.0783087,-6.5983471,4.3637842)"/><path style="opacity:1;fill:url(#linearGradient14);fill-opacity:1;fill-rule:evenodd;stroke:none;stroke-width:0.499999;stroke-linejoin:round;stroke-dasharray:none;stroke-opacity:1" id="path84" d="m 55.033329,98.689585 c -0.09954,0.03982 -0.683201,-0.691357 -0.781737,-0.733587 -0.09854,-0.04223 -1.030532,0.03937 -1.070347,-0.06016 -0.03981,-0.09954 0.691358,-0.6832 0.733588,-0.781736 0.04223,-0.09854 -0.03937,-1.030532 0.06016,-1.070347 0.09954,-0.03981 0.683201,0.691358 0.781736,0.733587 0.09854,0.04223 1.030533,-0.03937 1.070347,0.06016 0.03981,0.09954 -0.691357,0.683201 -0.733587,0.781736 -0.04223,0.09854 0.03937,1.030533 -0.06016,1.070347 z"/><path style="opacity:1;fill:url(#linearGradient15);fill-opacity:1;fill-rule:evenodd;stroke:none;stroke-width:0.499999;stroke-linejoin:round;stroke-dasharray:none;stroke-opacity:1" id="path85" d="m 68.27029,24.560853 c -0.07963,0.05972 -0.779405,-0.454928 -0.87794,-0.469004 -0.09854,-0.01408 -0.914422,0.28405 -0.974144,0.204421 -0.05972,-0.07963 0.454928,-0.779405 0.469004,-0.87794 0.01408,-0.09854 -0.284049,-0.914422 -0.20442,-0.974144 0.07963,-0.05972 0.779404,0.454928 0.87794,0.469004 0.09853,0.01408 0.914421,-0.284049 0.974143,-0.20442 0.05972,0.07963 -0.454928,0.779404 -0.469004,0.87794 -0.01408,0.09853 0.28405,0.914421 0.204421,0.974143 z"/><path style="display:inline;opacity:1;fill:url(#linearGradient131);fill-opacity:1;fill-rule:evenodd;stroke:none;stroke-width:0.499999;stroke-linejoin:round;stroke-dasharray:none;stroke-opacity:1" id="path85-9" d="m 68.27029,24.560853 c -0.07963,0.05972 -0.779405,-0.454928 -0.87794,-0.469004 -0.09854,-0.01408 -0.914422,0.28405 -0.974144,0.204421 -0.05972,-0.07963 0.454928,-0.779405 0.469004,-0.87794 0.01408,-0.09854 -0.284049,-0.914422 -0.20442,-0.974144 0.07963,-0.05972 0.779404,0.454928 0.87794,0.469004 0.09853,0.01408 0.914421,-0.284049 0.974143,-0.20442 0.05972,0.07963 -0.454928,0.779404 -0.469004,0.87794 -0.01408,0.09853 0.28405,0.914421 0.204421,0.974143 z" transform="translate(-21.698802,51.379384)"/><path style="display:inline;opacity:1;fill:url(#linearGradient113);fill-opacity:1;fill-rule:evenodd;stroke:none;stroke-width:0.499999;stroke-linejoin:round;stroke-dasharray:none;stroke-opacity:1" id="path85-4" d="m 72.760417,23.812499 c -0.07963,0.05972 -0.779404,-0.454928 -0.87794,-0.469004 -0.09853,-0.01408 -0.914422,0.28405 -0.974143,0.204421 -0.05972,-0.07963 0.454927,-0.779405 0.469004,-0.87794 0.01408,-0.09854 -0.28405,-0.914422 -0.204421,-0.974144 0.07963,-0.05972 0.779404,0.454928 0.87794,0.469004 0.09854,0.01408 0.914422,-0.284049 0.974144,-0.20442 0.05972,0.07963 -0.454928,0.779404 -0.469005,0.87794 -0.01408,0.09853 0.28405,0.914421 0.204421,0.974143 z" transform="translate(-26.188932,74.352738)"/><path style="opacity:1;fill:url(#linearGradient129);fill-opacity:1;fill-rule:evenodd;stroke:none;stroke-width:0.499999;stroke-linejoin:round;stroke-dasharray:none;stroke-opacity:1" id="path86" d="m 73.48802,104.70884 c 0.01991,0.11945 -0.927788,0.587 -0.99817,0.68554 -0.07038,0.0985 -0.205303,1.14664 -0.324746,1.16655 -0.119444,0.0199 -0.586997,-0.92779 -0.685533,-0.99817 -0.09854,-0.0704 -1.146643,-0.20531 -1.166551,-0.32475 -0.01991,-0.11944 0.927788,-0.587 0.998171,-0.68553 0.07038,-0.0985 0.205303,-1.14665 0.324746,-1.16655 0.119443,-0.0199 0.586997,0.92778 0.685533,0.99817 0.09853,0.0704 1.146643,0.2053 1.16655,0.32474 z" transform="translate(3.7417733,-3.9288619)"/><path style="opacity:1;fill:url(#linearGradient123);fill-opacity:1;fill-rule:evenodd;stroke:none;stroke-width:0.499999;stroke-linejoin:round;stroke-dasharray:none;stroke-opacity:1" id="path87" d="m 36.141075,44.543544 c -0.09954,0.01991 -0.516884,-0.761472 -0.601343,-0.817778 -0.08446,-0.05631 -0.96625,-0.14102 -0.986157,-0.240556 -0.01991,-0.09954 0.761471,-0.516884 0.817777,-0.601343 0.05631,-0.08446 0.14102,-0.96625 0.240556,-0.986157 0.09954,-0.01991 0.516884,0.761471 0.601343,0.817777 0.08446,0.05631 0.96625,0.14102 0.986157,0.240557 0.01991,0.09954 -0.761471,0.516883 -0.817777,0.601342 -0.05631,0.08446 -0.14102,0.96625 -0.240556,0.986158 z" transform="translate(2.80633,2.245064)"/><path style="opacity:1;fill:url(#linearGradient16);fill-opacity:1;fill-rule:evenodd;stroke:none;stroke-width:0.499999;stroke-linejoin:round;stroke-dasharray:none;stroke-opacity:1" id="path88" d="m 97.377677,41.127799 c -0.03982,0.07963 -0.805495,-0.05218 -0.889954,-0.02403 -0.08446,0.02815 -0.617917,0.593009 -0.697546,0.553194 -0.07963,-0.03981 0.05218,-0.805494 0.02403,-0.889953 -0.02815,-0.08446 -0.593008,-0.617918 -0.553194,-0.697547 0.03982,-0.07963 0.805495,0.05218 0.889954,0.02403 0.08446,-0.02815 0.617917,-0.593009 0.697546,-0.553194 0.07963,0.03981 -0.05218,0.805494 -0.02403,0.889953 0.02815,0.08446 0.593008,0.617918 0.553194,0.697547 z"/><path style="display:inline;opacity:1;fill:url(#linearGradient118);fill-opacity:1;fill-rule:evenodd;stroke:none;stroke-width:0.499999;stroke-linejoin:round;stroke-dasharray:none;stroke-opacity:1" id="path85-3" d="m 72.760417,23.812499 c -0.07963,0.05972 -0.779404,-0.454928 -0.87794,-0.469004 -0.09853,-0.01408 -0.914422,0.28405 -0.974143,0.204421 -0.05972,-0.07963 0.454927,-0.779405 0.469004,-0.87794 0.01408,-0.09854 -0.28405,-0.914422 -0.204421,-0.974144 0.07963,-0.05972 0.779404,0.454928 0.87794,0.469004 0.09854,0.01408 0.914422,-0.284049 0.974144,-0.20442 0.05972,0.07963 -0.454928,0.779404 -0.469005,0.87794 -0.01408,0.09853 0.28405,0.914421 0.204421,0.974143 z" transform="translate(-9.5201817,74.352738)"/><path style="display:inline;opacity:1;fill:url(#linearGradient115);fill-opacity:1;fill-rule:evenodd;stroke:none;stroke-width:0.499999;stroke-linejoin:round;stroke-dasharray:none;stroke-opacity:1" id="path82-9" d="m 96.485347,80.804286 c -0.05972,0.05972 -0.709291,-0.28861 -0.79375,-0.28861 -0.08446,0 -0.734028,0.348332 -0.79375,0.28861 -0.05972,-0.05972 0.288611,-0.709291 0.288611,-0.79375 0,-0.08446 -0.348333,-0.734028 -0.288611,-0.79375 0.05972,-0.05972 0.709291,0.288611 0.79375,0.288611 0.08446,0 0.734028,-0.348332 0.79375,-0.288611 0.05972,0.05972 -0.288611,0.709291 -0.288611,0.79375 0,0.08446 0.348333,0.734029 0.288611,0.79375 z" transform="translate(-16.661863,-49.20561)"/><circle style="display:inline;opacity:1;fill:url(#radialGradient111);fill-opacity:1;fill-rule:evenodd;stroke:none;stroke-width:0.444649;stroke-linejoin:round;stroke-dasharray:none;stroke-opacity:1" id="path110" cx="64" cy="64" r="48"/></g><g id="g3" style="display:inline;fill:url(#linearGradient5);stroke:none;stroke-width:0;stroke-linecap:round;stroke-linejoin:miter;stroke-dasharray:none;stroke-opacity:0.255474"><path style="fill:url(#linearGradient13);fill-opacity:1;fill-rule:evenodd;stroke:none;stroke-width:0;stroke-linecap:round;stroke-linejoin:miter;stroke-dasharray:none;stroke-opacity:0.255474" d="M 59.767316,2.443241 12.233983,29.881009 C 9.6140211,31.393335 8,34.188616 8,37.213732 V 59.533333 C 8,64.209344 11.790656,68 16.466667,68 H 32 V 80 L 45.754936,66.245064 c 1.239915,-1.239915 1.239915,-3.250213 0,-4.490128 L 32,48 V 60 H 19.175 C 17.421496,60 16,58.578504 16,56.825 V 38.818886 c 0,-1.126696 0.597114,-2.169002 1.569053,-2.738897 L 62.04694,10.000467 c 0.985024,-0.5775668 2.204325,-0.5817085 3.193251,-0.010846 l 51.584939,29.77767 C 118.23624,40.581862 120,39.563472 120,37.934128 v -3.164762 c 0,-1.512558 -0.80701,-2.910198 -2.11699,-3.666362 L 68.232684,2.443241 c -2.619266,-1.51192422 -5.846102,-1.51192422 -8.465368,0 z M 68.232684,125.55676 115.76602,98.118991 C 118.38598,96.606665 120,93.811384 120,90.786268 V 68.466667 C 120,63.790656 116.20934,60 111.53333,60 H 96 V 48 L 82.245064,61.754936 c -1.239915,1.239915 -1.239915,3.250213 0,4.490128 L 96,80 V 68 h 12.825 c 1.7535,0 3.175,1.421496 3.175,3.175 v 18.006114 c 0,1.126696 -0.59711,2.169002 -1.56905,2.738897 L 65.95306,117.99953 c -0.985024,0.57757 -2.204325,0.58171 -3.193251,0.0109 L 11.174869,88.232709 C 9.7637581,87.418138 8,88.436528 8,90.065872 v 3.164762 c 0,1.512558 0.8070106,2.910198 2.116992,3.666362 l 49.650324,28.659764 c 2.619266,1.51192 5.846102,1.51192 8.465368,0 z" id="path1"/><circle style="fill:url(#linearGradient11);fill-rule:evenodd;stroke:none;stroke-width:0;stroke-linecap:round;stroke-linejoin:miter;stroke-dasharray:none;stroke-opacity:0.255474" id="path2" cx="64" cy="64" r="16"/></g><g id="g4" style="display:inline;fill:none;stroke:url(#linearGradient2);stroke-width:1.5;stroke-linecap:round;stroke-linejoin:round;stroke-dasharray:none;stroke-opacity:1"><path style="opacity:1;fill:none;fill-opacity:1;fill-rule:evenodd;stroke:url(#linearGradient17);stroke-width:0.5;stroke-linecap:round;stroke-linejoin:round;stroke-dasharray:none;stroke-opacity:1" d="M 59.767316,2.443241 12.233983,29.881009 C 9.6140211,31.393335 8,34.188616 8,37.213732 V 59.533333 C 8,64.209344 11.790656,68 16.466667,68 H 32 V 80 L 45.754936,66.245064 c 1.239915,-1.239915 1.239915,-3.250213 0,-4.490128 L 32,48 V 60 H 19.175 C 17.421496,60 16,58.578504 16,56.825 V 38.818886 c 0,-1.126696 0.597114,-2.169002 1.569053,-2.738897 L 62.04694,10.000467 c 0.985024,-0.5775668 2.204325,-0.5817085 3.193251,-0.010846 l 51.584939,29.77767 C 118.23624,40.581862 120,39.563472 120,37.934128 v -3.164762 c 0,-1.512558 -0.80701,-2.910198 -2.11699,-3.666362 L 68.232684,2.443241 c -2.619266,-1.51192422 -5.846102,-1.51192422 -8.465368,0 z M 68.232684,125.55676 115.76602,98.118991 C 118.38598,96.606665 120,93.811384 120,90.786268 V 68.466667 C 120,63.790656 116.20934,60 111.53333,60 H 96 V 48 L 82.245064,61.754936 c -1.239915,1.239915 -1.239915,3.250213 0,4.490128 L 96,80 V 68 h 12.825 c 1.7535,0 3.175,1.421496 3.175,3.175 v 18.006114 c 0,1.126696 -0.59711,2.169002 -1.56905,2.738897 L 65.95306,117.99953 c -0.985024,0.57757 -2.204325,0.58171 -3.193251,0.0109 L 11.174869,88.232709 C 9.7637581,87.418138 8,88.436528 8,90.065872 v 3.164762 c 0,1.512558 0.8070106,2.910198 2.116992,3.666362 l 49.650324,28.659764 c 2.619266,1.51192 5.846102,1.51192 8.465368,0 z" id="path3"/><ellipse style="opacity:1;mix-blend-mode:normal;fill:none;fill-rule:evenodd;stroke:url(#linearGradient3);stroke-width:2.102;stroke-linecap:round;stroke-linejoin:round;stroke-dasharray:none;stroke-opacity:1" id="circle3" cx="64" cy="64" rx="14.948905" ry="14.948907"/><circle style="opacity:0.707237;mix-blend-mode:normal;fill:url(#radialGradient9);fill-rule:evenodd;stroke:none;stroke-width:0;stroke-linejoin:round;stroke-dasharray:none;stroke-opacity:1" id="path6" cx="64" cy="64" r="16"/></g><g id="g28" transform="translate(0,2e-5)"><path id="path29" style="fill:url(#linearGradient48);fill-opacity:1;fill-rule:evenodd;stroke:none;stroke-width:0;stroke-linecap:round;stroke-linejoin:round;stroke-dasharray:none;stroke-opacity:1" d="m 291.75,87.5 c -6.06565,-0.06054 -9.32063,4.151053 -9.25,9.5 0.0706,5.34895 3.282,9.5 9.25,9.5 5.968,0 9.09442,-4.05537 9.25,-9.5 0.15558,-5.44463 -3.18435,-9.439465 -9.25,-9.5 z m -17.75,0 c -7.18948,0 -9.5,3.997017 -9.5,9.5 0,5.50298 2.80497,9.5 9.5,9.5 h 3.94167 A 1.0583333,1.0583333 135 0 0 279,105.44167 v -0.38334 A 1.0583333,1.0583333 45 0 0 277.94167,104 H 274 c -4.5625,0 -7,-2.70489 -7,-7 0,-4.295112 2.06147,-7 7,-7 h 3.94167 A 1.0583333,1.0583333 135 0 0 279,88.941667 V 88.558333 A 1.0583333,1.0583333 45 0 0 277.94167,87.5 Z m -70.5,0 c -3.94592,0 -6.5,1.420518 -6.5,5.375 0,3.954482 3.47998,5.32556 6.5,5.32556 3.02002,0 4,1.361198 4,2.92444 0,1.56324 -0.94326,2.875 -4,2.875 h -5.07697 a 1.0583333,1.0583333 135 0 0 -1.05833,1.05833 v 0.38334 A 1.0583333,1.0583333 45 0 0 198.42303,106.5 H 203.5 c 4.12006,0 6.5,-1.29302 6.5,-5.375 0,-4.081975 -3.54388,-5.375 -6.5,-5.375 -2.95612,0 -4,-1.242 -4,-2.875 0,-1.633 1.03422,-2.875 4,-2.875 h 5.44167 A 1.0583333,1.0583333 135 0 0 210,88.941667 V 88.558333 A 1.0583333,1.0583333 45 0 0 208.94167,87.5 Z M 305,88.558333 v 16.883337 a 1.0583333,1.0583333 45 0 0 1.05833,1.05833 h 0.38334 A 1.0583333,1.0583333 135 0 0 307.5,105.44167 V 93.29375 a 0.21614471,0.21614471 164.76723 0 1 0.40245,-0.10959 l 4.06095,6.90363 A 1.8504076,1.8504076 29.767228 0 0 313.55833,101 h 0.38334 a 1.8504076,1.8504076 150.23277 0 0 1.59493,-0.91221 l 4.06095,-6.90363 A 0.21614471,0.21614471 15.232772 0 1 320,93.29375 v 12.14792 a 1.0583333,1.0583333 45 0 0 1.05833,1.05833 h 0.38334 A 1.0583333,1.0583333 135 0 0 322.5,105.44167 V 88.558333 A 1.0583333,1.0583333 45 0 0 321.44167,87.5 h -0.38334 a 1.8185611,1.8185611 149.80223 0 0 -1.58116,0.920175 l -5.33505,9.389694 a 0.45099432,0.45099432 0 0 1 -0.78424,0 l -5.33505,-9.389694 A 1.8185611,1.8185611 30.197775 0 0 306.44167,87.5 h -0.38334 A 1.0583333,1.0583333 135 0 0 305,88.558333 Z m 48,0 v 16.883337 a 1.0583333,1.0583333 45 0 0 1.05833,1.05833 h 8.88334 A 1.0583333,1.0583333 135 0 0 364,105.44167 v -0.38334 A 1.0583333,1.0583333 45 0 0 362.94167,104 h -6.64792 A 0.79375,0.79375 45 0 1 355.5,103.20625 V 88.558333 A 1.0583333,1.0583333 45 0 0 354.44167,87.5 h -0.38334 A 1.0583333,1.0583333 135 0 0 353,88.558333 Z m 32,0 v 16.883337 a 1.0583333,1.0583333 45 0 0 1.05833,1.05833 h 0.38334 A 1.0583333,1.0583333 135 0 0 387.5,105.44167 V 99.04375 A 0.79375,0.79375 135 0 1 388.29375,98.25 H 392 c 2.4582,0 3.5,1.365194 3.5,2.875 v 4.31667 a 1.0583333,1.0583333 45 0 0 1.05833,1.05833 h 0.38334 A 1.0583333,1.0583333 135 0 0 398,105.44167 V 101.125 c 0,-1.982896 -0.79572,-3.429708 -2,-4.125 1.16507,-0.672656 2,-1.636244 2,-4.125 0,-2.488756 -2.27894,-5.375 -6,-5.375 h -5.94167 A 1.0583333,1.0583333 135 0 0 385,88.558333 Z m -205,0 V 105.44167 A 1.0583333,1.0583333 45 0 0 181.05833,106.5 H 187.5 c 3.6045,0 6,-2.43468 6,-5.375 0,-1.859403 -0.60174,-3.229701 -2.5,-4.125 1.89706,-0.680979 2.5,-1.85818 2.5,-4.125 0,-2.3881 -2.57622,-5.375 -6,-5.375 h -6.44167 A 1.0583333,1.0583333 135 0 0 180,88.558333 Z M 233.67708,87.5 H 221.82292 A 1.3229167,1.3229167 135 0 0 220.5,88.822917 1.2521249,1.2521249 41.661528 0 0 221.82292,90 h 3.88333 A 0.79375,0.79375 45 0 1 226.5,90.79375 v 14.38333 A 1.3229167,1.3229167 45 0 0 227.82292,106.5 1.2521249,1.2521249 131.66153 0 0 229,105.17708 V 90.79375 A 0.79375,0.79375 135 0 1 229.79375,90 h 3.88333 A 1.3229167,1.3229167 135 0 0 235,88.677083 1.2521249,1.2521249 41.661528 0 0 233.67708,87.5 Z M 335,87.5 h -5.94167 A 1.0583333,1.0583333 135 0 0 328,88.558333 v 16.883337 a 1.0583333,1.0583333 45 0 0 1.05833,1.05833 h 0.38334 A 1.0583333,1.0583333 135 0 0 330.5,105.44167 V 99.04375 A 0.79375,0.79375 135 0 1 331.29375,98.25 H 335 c 3.5009,0 6,-2.568332 6,-5.375 0,-2.806668 -2.47313,-5.375 -6,-5.375 z m -199.20572,1.016597 4.91144,16.966803 a 1.4081426,1.4081426 36.927831 0 0 1.35261,1.0166 h 0.38334 a 1.3875844,1.3875844 142.66664 0 0 1.33819,-1.02066 l 3.76025,-13.713844 a 0.21764113,0.21764113 -180 0 1 0.41978,0 l 3.76025,13.713844 a 1.3875844,1.3875844 37.333358 0 0 1.33819,1.02066 h 0.38334 a 1.4081426,1.4081426 143.07217 0 0 1.35261,-1.0166 l 4.91144,-16.966803 A 0.79542328,0.79542328 53.072169 0 0 158.94167,87.5 h -0.38334 a 1.3875844,1.3875844 142.66664 0 0 -1.33819,1.020661 l -3.76025,13.713839 a 0.21764113,0.21764113 0 0 1 -0.41978,0 L 149.27986,88.520661 A 1.3875844,1.3875844 37.333358 0 0 147.94167,87.5 h -0.38334 a 1.3875844,1.3875844 142.66664 0 0 -1.33819,1.020661 l -3.76025,13.713839 a 0.21764113,0.21764113 0 0 1 -0.41978,0 L 138.27986,88.520661 A 1.3875844,1.3875844 37.333358 0 0 136.94167,87.5 h -0.38334 a 0.79542328,0.79542328 126.92783 0 0 -0.76405,1.016597 z M 215.94167,87.5 h -0.38334 A 1.0583333,1.0583333 135 0 0 214.5,88.558333 v 16.883337 a 1.0583333,1.0583333 45 0 0 1.05833,1.05833 h 0.38334 A 1.0583333,1.0583333 135 0 0 217,105.44167 V 88.558333 A 1.0583333,1.0583333 45 0 0 215.94167,87.5 Z M 163,88.558333 v 16.883337 a 1.0583333,1.0583333 45 0 0 1.05833,1.05833 h 9.88334 A 1.0583333,1.0583333 135 0 0 175,105.44167 v -0.38334 A 1.0583333,1.0583333 45 0 0 173.94167,104 h -7.64792 A 0.79375,0.79375 45 0 1 165.5,103.20625 v -4.1625 A 0.79375,0.79375 135 0 1 166.29375,98.25 h 7.64792 A 1.0583333,1.0583333 135 0 0 175,97.191667 V 96.808333 A 1.0583333,1.0583333 45 0 0 173.94167,95.75 h -7.64792 A 0.79375,0.79375 45 0 1 165.5,94.95625 v -4.1625 A 0.79375,0.79375 135 0 1 166.29375,90 h 7.64792 A 1.0583333,1.0583333 135 0 0 175,88.941667 V 88.558333 A 1.0583333,1.0583333 45 0 0 173.94167,87.5 h -9.88334 A 1.0583333,1.0583333 135 0 0 163,88.558333 Z M 335,90 c 2.07438,0 3.5,1.10333 3.5,2.875 0,1.77167 -1.79885,2.875 -3.5,2.875 h -3.70625 A 0.79375,0.79375 45 0 1 330.5,94.95625 v -4.1625 A 0.79375,0.79375 135 0 1 331.29375,90 Z m -147.5,0 c 2.22892,0 3.5,1.415229 3.5,2.875 0,1.459771 -1.19172,2.875 -3.5,2.875 h -4.20625 A 0.79375,0.79375 45 0 1 182.5,94.95625 v -4.1625 A 0.79375,0.79375 135 0 1 183.29375,90 Z m 200.79375,0 H 392 c 2.26632,0 3.48513,1.090105 3.5,2.875 0.0149,1.784895 -1.12355,2.875 -3.5,2.875 h -3.70625 A 0.79375,0.79375 45 0 1 387.5,94.95625 v -4.1625 A 0.79375,0.79375 135 0 1 388.29375,90 Z M 291.75,90 c 3.98697,0.107879 6.60788,3.043719 6.75,7 0.14212,3.95628 -2.21109,7 -6.75,7 -4.53891,0 -6.75,-2.72983 -6.75,-7 0,-4.270175 2.76303,-7.107879 6.75,-7 z M 187.5,98.25 c 2.30535,0 3.5,1.181409 3.5,2.875 0,1.69359 -1.22891,2.875 -3.5,2.875 h -4.20625 A 0.79375,0.79375 45 0 1 182.5,103.20625 v -4.1625 A 0.79375,0.79375 135 0 1 183.29375,98.25 Z M 238,88.822915 v 16.354165 a 1.3229167,1.3229167 45 0 0 1.32292,1.32292 h 9.35416 A 1.3229167,1.3229167 135 0 0 250,105.17708 1.2521249,1.2521249 41.661528 0 0 248.67708,104 h -7.38333 A 0.79375,0.79375 45 0 1 240.5,103.20625 v -4.162503 a 0.79375,0.79375 135 0 1 0.79375,-0.79375 h 7.38333 A 1.3229167,1.3229167 135 0 0 250,96.92708 1.2521249,1.2521249 41.661528 0 0 248.67708,95.749997 h -7.38333 A 0.79375,0.79375 45 0 1 240.5,94.956247 v -4.1625 a 0.79375,0.79375 135 0 1 0.79375,-0.79375 h 7.38333 A 1.3229167,1.3229167 135 0 0 250,88.67708 1.2521245,1.2521245 41.661504 0 0 248.67708,87.499998 h -9.35416 A 1.3229167,1.3229167 135 0 0 238,88.822915 Z m 130.5,-0.264584 v 16.883339 a 1.0583333,1.0583333 45 0 0 1.05833,1.05833 h 9.88334 A 1.0583333,1.0583333 135 0 0 380.5,105.44167 v -0.38334 A 1.0583333,1.0583333 45 0 0 379.44167,104 h -7.64792 A 0.79375,0.79375 45 0 1 371,103.20625 v -4.162503 a 0.79375,0.79375 135 0 1 0.79375,-0.79375 h 7.64792 A 1.0583333,1.0583333 135 0 0 380.5,97.191664 V 96.80833 a 1.0583333,1.0583333 45 0 0 -1.05833,-1.058333 h -7.64792 A 0.79375,0.79375 45 0 1 371,94.956247 v -4.1625 a 0.79375,0.79375 135 0 1 0.79375,-0.79375 h 7.64792 A 1.0583333,1.0583333 135 0 0 380.5,88.941664 v -0.383333 a 1.0583333,1.0583333 45 0 0 -1.05833,-1.058333 h -9.88334 A 1.0583333,1.0583333 135 0 0 368.5,88.558331 Z M 346.69167,87.5 h -0.38334 A 1.0583333,1.0583333 135 0 0 345.25,88.558333 v 16.883337 a 1.0583333,1.0583333 45 0 0 1.05833,1.05833 h 0.38334 A 1.0583333,1.0583333 135 0 0 347.75,105.44167 V 88.558333 A 1.0583333,1.0583333 45 0 0 346.69167,87.5 Z"/><path id="path20" style="fill:url(#linearGradient46);fill-opacity:1;fill-rule:evenodd;stroke:none;stroke-width:0;stroke-linecap:round;stroke-linejoin:round;stroke-dasharray:none;stroke-opacity:1" d="m 320,21.5 c -9.25035,0 -14,5.420793 -14,14 V 59 c 0,7.645643 5.29956,14 14,14 8.70044,0 14,-4.113523 14,-14 V 35.5 c 0,-8.180249 -4.74965,-14 -14,-14 z m -21.5875,0 H 289 c -7.76899,0 -12,5.612607 -12,14 V 59 c 0,8.267519 4.66587,14 12,14 h 9.4125 A 1.5875,1.5875 135 0 0 300,71.4125 v -1.425 a 1.5731338,1.5731338 44.739572 0 0 -1.58743,-1.573069 L 289,68.5 c -4.26886,0.03881 -7.5,-3.08659 -7.5,-9.5 V 35.5 c 0,-6.258961 2.3576,-9.5 7.5,-9.5 h 9.4125 A 1.5875,1.5875 135 0 0 300,24.4125 v -1.325 A 1.5875,1.5875 45 0 0 298.4125,21.5 Z M 374.5,23.0875 v 48.325 A 1.5875,1.5875 45 0 0 376.0875,73 h 20.325 A 1.5875,1.5875 135 0 0 398,71.4125 v -1.325 A 1.5875,1.5875 45 0 0 396.4125,68.5 h -15.825 A 1.5875,1.5875 45 0 1 379,66.9125 V 51.0875 A 1.5875,1.5875 135 0 1 380.5875,49.5 h 15.825 A 1.5875,1.5875 135 0 0 398,47.9125 v -1.325 A 1.5875,1.5875 45 0 0 396.4125,45 h -15.825 A 1.5875,1.5875 45 0 1 379,43.4125 V 27.5875 A 1.5875,1.5875 135 0 1 380.5875,26 h 15.825 A 1.5875,1.5875 135 0 0 398,24.4125 v -1.325 A 1.5875,1.5875 45 0 0 396.4125,21.5 h -20.325 A 1.5875,1.5875 135 0 0 374.5,23.0875 Z M 354,21.5 H 342.5875 A 1.5875,1.5875 135 0 0 341,23.0875 v 48.325 A 1.5875,1.5875 45 0 0 342.5875,73 h 1.325 A 1.5875,1.5875 135 0 0 345.5,71.4125 V 51.0875 A 1.5875,1.5875 135 0 1 347.0875,49.5 H 354 c 6.59098,0 9.5,3.583763 9.5,9.5 V 71.4125 A 1.5875,1.5875 45 0 0 365.0875,73 h 1.325 A 1.5875,1.5875 135 0 0 368,71.4125 V 59 c 0,-6.917412 -3.16497,-10.283227 -6,-11.920032 2.93401,-1.693953 6,-3.663543 6,-11.579968 0,-7.916425 -4.70117,-14 -14,-14 z m -204.25,-10e-6 c -7.87623,-6e-6 -14.25,5.357851 -14.25,14.00001 0,8.642159 8.17337,14 14.25,14 6.07663,0 9.75,4.932128 9.75,9.5 0,4.567872 -2.34,9.50001 -9.75,9.50001 h -12.6625 a 1.5875,1.5875 135 0 0 -1.5875,1.5875 v 1.325 a 1.5875,1.5875 45 0 0 1.5875,1.5875 H 149.75 c 8.9293,0 14.10829,-5.572912 14.25,-14.00001 0.14171,-8.427098 -7.87359,-14 -14.25,-14 -6.37641,0 -9.75481,-5.255209 -9.75,-9.5 0.005,-4.244791 3.5478,-9.499986 9.75,-9.49999 l 12.6625,-9e-6 A 1.5875011,1.5875011 134.99998 0 0 164,24.4125 v -1.325 a 1.5875011,1.5875011 45.00002 0 0 -1.5875,-1.587501 z m 18.80741,1.486413 9.38518,25.027174 A 8.7545412,8.7545412 79.721984 0 1 178.5,51.0875 v 20.325 A 1.5875,1.5875 45 0 0 180.0875,73 h 1.325 A 1.5875,1.5875 135 0 0 183,71.4125 v -20.325 a 8.7545353,8.7545353 100.27802 0 1 0.55741,-3.073923 l 9.38518,-25.027154 A 1.1001382,1.1001382 55.278023 0 0 191.9125,21.5 h -1.325 a 2.2397986,2.2397986 144.67216 0 0 -2.11335,1.497878 l -7.1983,20.504244 a 0.55731383,0.55731383 0 0 1 -1.0517,0 l -7.1983,-20.504244 a 2.2398091,2.2398091 35.327963 0 0 -2.11335,-1.497885 l -1.325,-6e-6 a 1.1001333,1.1001333 124.72211 0 0 -1.03009,1.486416 z M 230,23.0875 v 1.325 A 1.5875,1.5875 45 0 0 231.5875,26 h 8.825 A 1.5875,1.5875 45 0 1 242,27.5875 v 43.825 A 1.5875,1.5875 45 0 0 243.5875,73 h 1.325 A 1.5875,1.5875 135 0 0 246.5,71.4125 V 27.5875 A 1.5875,1.5875 135 0 1 248.0875,26 h 8.825 A 1.5875,1.5875 135 0 0 258.5,24.4125 v -1.324998 a 1.5875001,1.5875001 45.000002 0 0 -1.5875,-1.5875 L 231.5875,21.5 A 1.5874999,1.5874999 135 0 0 230,23.0875 Z m -30.5,0 v 48.325 A 1.5875,1.5875 45 0 0 201.0875,73 h 1.325 A 1.5875,1.5875 135 0 0 204,71.4125 v -36.325 a 0.30032417,0.30032417 169.28735 0 1 0.57989,-0.109705 l 14.34022,36.54441 A 2.3282918,2.3282918 34.287353 0 0 221.0875,73 h 1.325 A 1.5875,1.5875 135 0 0 224,71.4125 V 23.0875 A 1.5875,1.5875 45 0 0 222.4125,21.5 h -1.325 A 1.5875,1.5875 135 0 0 219.5,23.0875 v 36.325 a 0.30032417,0.30032417 169.28735 0 1 -0.57989,0.109705 L 204.57989,22.977795 A 2.3282918,2.3282918 34.287353 0 0 202.4125,21.5 h -1.325 A 1.5875,1.5875 135 0 0 199.5,23.0875 Z M 267.9125,21.5 h -1.325 A 1.5875,1.5875 135 0 0 265,23.0875 v 48.325 A 1.5875,1.5875 45 0 0 266.5875,73 h 1.325 A 1.5875,1.5875 135 0 0 269.5,71.4125 V 23.0875 A 1.5875,1.5875 45 0 0 267.9125,21.5 Z M 320,26 c 6.49367,0.02339 9.5,3.285289 9.5,9.5 V 59 c 0,6.54337 -3.43575,9.5 -9.5,9.5 -6.06425,0 -9.5,-3.9474 -9.5,-9.5 V 35.5 c 0,-6.349011 3.00633,-9.523389 9.5,-9.5 z m 27.0875,0 H 354 c 6.44948,0 9.5,3.287284 9.5,9.5 0,6.212716 -2.67268,9.5 -9.5,9.5 h -6.9125 A 1.5875,1.5875 45 0 1 345.5,43.4125 V 27.5875 A 1.5875,1.5875 135 0 1 347.0875,26 Z"/></g><g id="g27" transform="translate(0,2e-5)"><path id="path26" style="display:inline;opacity:1;fill:none;fill-opacity:1;fill-rule:evenodd;stroke:url(#linearGradient33);stroke-width:0.5;stroke-linecap:round;stroke-linejoin:round;stroke-dasharray:none;stroke-opacity:1" d="m 291.75,87.5 c -6.06565,-0.06054 -9.32063,4.151053 -9.25,9.5 0.0706,5.34895 3.282,9.5 9.25,9.5 5.968,0 9.09442,-4.05537 9.25,-9.5 0.15558,-5.44463 -3.18435,-9.439465 -9.25,-9.5 z m -17.75,0 c -7.18948,0 -9.5,3.997017 -9.5,9.5 0,5.50298 2.80497,9.5 9.5,9.5 h 3.94167 A 1.0583333,1.0583333 135 0 0 279,105.44167 v -0.38334 A 1.0583333,1.0583333 45 0 0 277.94167,104 H 274 c -4.5625,0 -7,-2.70489 -7,-7 0,-4.295112 2.06147,-7 7,-7 h 3.94167 A 1.0583333,1.0583333 135 0 0 279,88.941667 V 88.558333 A 1.0583333,1.0583333 45 0 0 277.94167,87.5 Z m -70.5,0 c -3.94592,0 -6.5,1.420518 -6.5,5.375 0,3.954482 3.47998,5.32556 6.5,5.32556 3.02002,0 4,1.361198 4,2.92444 0,1.56324 -0.94326,2.875 -4,2.875 h -5.07697 a 1.0583333,1.0583333 135 0 0 -1.05833,1.05833 v 0.38334 A 1.0583333,1.0583333 45 0 0 198.42303,106.5 H 203.5 c 4.12006,0 6.5,-1.29302 6.5,-5.375 0,-4.081975 -3.54388,-5.375 -6.5,-5.375 -2.95612,0 -4,-1.242 -4,-2.875 0,-1.633 1.03422,-2.875 4,-2.875 h 5.44167 A 1.0583333,1.0583333 135 0 0 210,88.941667 V 88.558333 A 1.0583333,1.0583333 45 0 0 208.94167,87.5 Z M 305,88.558333 v 16.883337 a 1.0583333,1.0583333 45 0 0 1.05833,1.05833 h 0.38334 A 1.0583333,1.0583333 135 0 0 307.5,105.44167 V 93.29375 a 0.21614471,0.21614471 164.76723 0 1 0.40245,-0.10959 l 4.06095,6.90363 A 1.8504076,1.8504076 29.767228 0 0 313.55833,101 h 0.38334 a 1.8504076,1.8504076 150.23277 0 0 1.59493,-0.91221 l 4.06095,-6.90363 A 0.21614471,0.21614471 15.232772 0 1 320,93.29375 v 12.14792 a 1.0583333,1.0583333 45 0 0 1.05833,1.05833 h 0.38334 A 1.0583333,1.0583333 135 0 0 322.5,105.44167 V 88.558333 A 1.0583333,1.0583333 45 0 0 321.44167,87.5 h -0.38334 a 1.8185611,1.8185611 149.80223 0 0 -1.58116,0.920175 l -5.33505,9.389694 a 0.45099432,0.45099432 0 0 1 -0.78424,0 l -5.33505,-9.389694 A 1.8185611,1.8185611 30.197775 0 0 306.44167,87.5 h -0.38334 A 1.0583333,1.0583333 135 0 0 305,88.558333 Z m 48,0 v 16.883337 a 1.0583333,1.0583333 45 0 0 1.05833,1.05833 h 8.88334 A 1.0583333,1.0583333 135 0 0 364,105.44167 v -0.38334 A 1.0583333,1.0583333 45 0 0 362.94167,104 h -6.64792 A 0.79375,0.79375 45 0 1 355.5,103.20625 V 88.558333 A 1.0583333,1.0583333 45 0 0 354.44167,87.5 h -0.38334 A 1.0583333,1.0583333 135 0 0 353,88.558333 Z m 32,0 v 16.883337 a 1.0583333,1.0583333 45 0 0 1.05833,1.05833 h 0.38334 A 1.0583333,1.0583333 135 0 0 387.5,105.44167 V 99.04375 A 0.79375,0.79375 135 0 1 388.29375,98.25 H 392 c 2.4582,0 3.5,1.365194 3.5,2.875 v 4.31667 a 1.0583333,1.0583333 45 0 0 1.05833,1.05833 h 0.38334 A 1.0583333,1.0583333 135 0 0 398,105.44167 V 101.125 c 0,-1.982896 -0.79572,-3.429708 -2,-4.125 1.16507,-0.672656 2,-1.636244 2,-4.125 0,-2.488756 -2.27894,-5.375 -6,-5.375 h -5.94167 A 1.0583333,1.0583333 135 0 0 385,88.558333 Z m -205,0 V 105.44167 A 1.0583333,1.0583333 45 0 0 181.05833,106.5 H 187.5 c 3.6045,0 6,-2.43468 6,-5.375 0,-1.859403 -0.60174,-3.229701 -2.5,-4.125 1.89706,-0.680979 2.5,-1.85818 2.5,-4.125 0,-2.3881 -2.57622,-5.375 -6,-5.375 h -6.44167 A 1.0583333,1.0583333 135 0 0 180,88.558333 Z M 233.67708,87.5 H 221.82292 A 1.3229167,1.3229167 135 0 0 220.5,88.822917 1.2521249,1.2521249 41.661528 0 0 221.82292,90 h 3.88333 A 0.79375,0.79375 45 0 1 226.5,90.79375 v 14.38333 A 1.3229167,1.3229167 45 0 0 227.82292,106.5 1.2521249,1.2521249 131.66153 0 0 229,105.17708 V 90.79375 A 0.79375,0.79375 135 0 1 229.79375,90 h 3.88333 A 1.3229167,1.3229167 135 0 0 235,88.677083 1.2521249,1.2521249 41.661528 0 0 233.67708,87.5 Z M 335,87.5 h -5.94167 A 1.0583333,1.0583333 135 0 0 328,88.558333 v 16.883337 a 1.0583333,1.0583333 45 0 0 1.05833,1.05833 h 0.38334 A 1.0583333,1.0583333 135 0 0 330.5,105.44167 V 99.04375 A 0.79375,0.79375 135 0 1 331.29375,98.25 H 335 c 3.5009,0 6,-2.568332 6,-5.375 0,-2.806668 -2.47313,-5.375 -6,-5.375 z m -199.20572,1.016597 4.91144,16.966803 a 1.4081426,1.4081426 36.927831 0 0 1.35261,1.0166 h 0.38334 a 1.3875844,1.3875844 142.66664 0 0 1.33819,-1.02066 l 3.76025,-13.713844 a 0.21764113,0.21764113 -180 0 1 0.41978,0 l 3.76025,13.713844 a 1.3875844,1.3875844 37.333358 0 0 1.33819,1.02066 h 0.38334 a 1.4081426,1.4081426 143.07217 0 0 1.35261,-1.0166 l 4.91144,-16.966803 A 0.79542328,0.79542328 53.072169 0 0 158.94167,87.5 h -0.38334 a 1.3875844,1.3875844 142.66664 0 0 -1.33819,1.020661 l -3.76025,13.713839 a 0.21764113,0.21764113 0 0 1 -0.41978,0 L 149.27986,88.520661 A 1.3875844,1.3875844 37.333358 0 0 147.94167,87.5 h -0.38334 a 1.3875844,1.3875844 142.66664 0 0 -1.33819,1.020661 l -3.76025,13.713839 a 0.21764113,0.21764113 0 0 1 -0.41978,0 L 138.27986,88.520661 A 1.3875844,1.3875844 37.333358 0 0 136.94167,87.5 h -0.38334 a 0.79542328,0.79542328 126.92783 0 0 -0.76405,1.016597 z M 215.94167,87.5 h -0.38334 A 1.0583333,1.0583333 135 0 0 214.5,88.558333 v 16.883337 a 1.0583333,1.0583333 45 0 0 1.05833,1.05833 h 0.38334 A 1.0583333,1.0583333 135 0 0 217,105.44167 V 88.558333 A 1.0583333,1.0583333 45 0 0 215.94167,87.5 Z M 163,88.558333 v 16.883337 a 1.0583333,1.0583333 45 0 0 1.05833,1.05833 h 9.88334 A 1.0583333,1.0583333 135 0 0 175,105.44167 v -0.38334 A 1.0583333,1.0583333 45 0 0 173.94167,104 h -7.64792 A 0.79375,0.79375 45 0 1 165.5,103.20625 v -4.1625 A 0.79375,0.79375 135 0 1 166.29375,98.25 h 7.64792 A 1.0583333,1.0583333 135 0 0 175,97.191667 V 96.808333 A 1.0583333,1.0583333 45 0 0 173.94167,95.75 h -7.64792 A 0.79375,0.79375 45 0 1 165.5,94.95625 v -4.1625 A 0.79375,0.79375 135 0 1 166.29375,90 h 7.64792 A 1.0583333,1.0583333 135 0 0 175,88.941667 V 88.558333 A 1.0583333,1.0583333 45 0 0 173.94167,87.5 h -9.88334 A 1.0583333,1.0583333 135 0 0 163,88.558333 Z M 335,90 c 2.07438,0 3.5,1.10333 3.5,2.875 0,1.77167 -1.79885,2.875 -3.5,2.875 h -3.70625 A 0.79375,0.79375 45 0 1 330.5,94.95625 v -4.1625 A 0.79375,0.79375 135 0 1 331.29375,90 Z m -147.5,0 c 2.22892,0 3.5,1.415229 3.5,2.875 0,1.459771 -1.19172,2.875 -3.5,2.875 h -4.20625 A 0.79375,0.79375 45 0 1 182.5,94.95625 v -4.1625 A 0.79375,0.79375 135 0 1 183.29375,90 Z m 200.79375,0 H 392 c 2.26632,0 3.48513,1.090105 3.5,2.875 0.0149,1.784895 -1.12355,2.875 -3.5,2.875 h -3.70625 A 0.79375,0.79375 45 0 1 387.5,94.95625 v -4.1625 A 0.79375,0.79375 135 0 1 388.29375,90 Z M 291.75,90 c 3.98697,0.107879 6.60788,3.043719 6.75,7 0.14212,3.95628 -2.21109,7 -6.75,7 -4.53891,0 -6.75,-2.72983 -6.75,-7 0,-4.270175 2.76303,-7.107879 6.75,-7 z M 187.5,98.25 c 2.30535,0 3.5,1.181409 3.5,2.875 0,1.69359 -1.22891,2.875 -3.5,2.875 h -4.20625 A 0.79375,0.79375 45 0 1 182.5,103.20625 v -4.1625 A 0.79375,0.79375 135 0 1 183.29375,98.25 Z M 238,88.822915 v 16.354165 a 1.3229167,1.3229167 45 0 0 1.32292,1.32292 h 9.35416 A 1.3229167,1.3229167 135 0 0 250,105.17708 1.2521249,1.2521249 41.661528 0 0 248.67708,104 h -7.38333 A 0.79375,0.79375 45 0 1 240.5,103.20625 v -4.162503 a 0.79375,0.79375 135 0 1 0.79375,-0.79375 h 7.38333 A 1.3229167,1.3229167 135 0 0 250,96.92708 1.2521249,1.2521249 41.661528 0 0 248.67708,95.749997 h -7.38333 A 0.79375,0.79375 45 0 1 240.5,94.956247 v -4.1625 a 0.79375,0.79375 135 0 1 0.79375,-0.79375 h 7.38333 A 1.3229167,1.3229167 135 0 0 250,88.67708 1.2521245,1.2521245 41.661504 0 0 248.67708,87.499998 h -9.35416 A 1.3229167,1.3229167 135 0 0 238,88.822915 Z m 130.5,-0.264584 v 16.883339 a 1.0583333,1.0583333 45 0 0 1.05833,1.05833 h 9.88334 A 1.0583333,1.0583333 135 0 0 380.5,105.44167 v -0.38334 A 1.0583333,1.0583333 45 0 0 379.44167,104 h -7.64792 A 0.79375,0.79375 45 0 1 371,103.20625 v -4.162503 a 0.79375,0.79375 135 0 1 0.79375,-0.79375 h 7.64792 A 1.0583333,1.0583333 135 0 0 380.5,97.191664 V 96.80833 a 1.0583333,1.0583333 45 0 0 -1.05833,-1.058333 h -7.64792 A 0.79375,0.79375 45 0 1 371,94.956247 v -4.1625 a 0.79375,0.79375 135 0 1 0.79375,-0.79375 h 7.64792 A 1.0583333,1.0583333 135 0 0 380.5,88.941664 v -0.383333 a 1.0583333,1.0583333 45 0 0 -1.05833,-1.058333 h -9.88334 A 1.0583333,1.0583333 135 0 0 368.5,88.558331 Z M 346.69167,87.5 h -0.38334 A 1.0583333,1.0583333 135 0 0 345.25,88.558333 v 16.883337 a 1.0583333,1.0583333 45 0 0 1.05833,1.05833 h 0.38334 A 1.0583333,1.0583333 135 0 0 347.75,105.44167 V 88.558333 A 1.0583333,1.0583333 45 0 0 346.69167,87.5 Z"/><path id="path27" style="fill:none;fill-opacity:1;fill-rule:evenodd;stroke:url(#linearGradient31);stroke-width:0.5;stroke-linecap:round;stroke-linejoin:round;stroke-dasharray:none;stroke-opacity:1" d="m 320,21.5 c -9.25035,0 -14,5.420793 -14,14 V 59 c 0,7.645643 5.29956,14 14,14 8.70044,0 14,-4.113523 14,-14 V 35.5 c 0,-8.180249 -4.74965,-14 -14,-14 z m -21.5875,0 H 289 c -7.76899,0 -12,5.612607 -12,14 V 59 c 0,8.267519 4.66587,14 12,14 h 9.4125 A 1.5875,1.5875 135 0 0 300,71.4125 v -1.425 a 1.5731338,1.5731338 44.739572 0 0 -1.58743,-1.573069 L 289,68.5 c -4.26886,0.03881 -7.5,-3.08659 -7.5,-9.5 V 35.5 c 0,-6.258961 2.3576,-9.5 7.5,-9.5 h 9.4125 A 1.5875,1.5875 135 0 0 300,24.4125 v -1.325 A 1.5875,1.5875 45 0 0 298.4125,21.5 Z M 374.5,23.0875 v 48.325 A 1.5875,1.5875 45 0 0 376.0875,73 h 20.325 A 1.5875,1.5875 135 0 0 398,71.4125 v -1.325 A 1.5875,1.5875 45 0 0 396.4125,68.5 h -15.825 A 1.5875,1.5875 45 0 1 379,66.9125 V 51.0875 A 1.5875,1.5875 135 0 1 380.5875,49.5 h 15.825 A 1.5875,1.5875 135 0 0 398,47.9125 v -1.325 A 1.5875,1.5875 45 0 0 396.4125,45 h -15.825 A 1.5875,1.5875 45 0 1 379,43.4125 V 27.5875 A 1.5875,1.5875 135 0 1 380.5875,26 h 15.825 A 1.5875,1.5875 135 0 0 398,24.4125 v -1.325 A 1.5875,1.5875 45 0 0 396.4125,21.5 h -20.325 A 1.5875,1.5875 135 0 0 374.5,23.0875 Z M 354,21.5 H 342.5875 A 1.5875,1.5875 135 0 0 341,23.0875 v 48.325 A 1.5875,1.5875 45 0 0 342.5875,73 h 1.325 A 1.5875,1.5875 135 0 0 345.5,71.4125 V 51.0875 A 1.5875,1.5875 135 0 1 347.0875,49.5 H 354 c 6.59098,0 9.5,3.583763 9.5,9.5 V 71.4125 A 1.5875,1.5875 45 0 0 365.0875,73 h 1.325 A 1.5875,1.5875 135 0 0 368,71.4125 V 59 c 0,-6.917412 -3.16497,-10.283227 -6,-11.920032 2.93401,-1.693953 6,-3.663543 6,-11.579968 0,-7.916425 -4.70117,-14 -14,-14 z m -204.25,-10e-6 c -7.87623,-6e-6 -14.25,5.357851 -14.25,14.00001 0,8.642159 8.17337,14 14.25,14 6.07663,0 9.75,4.932128 9.75,9.5 0,4.567872 -2.34,9.50001 -9.75,9.50001 h -12.6625 a 1.5875,1.5875 135 0 0 -1.5875,1.5875 v 1.325 a 1.5875,1.5875 45 0 0 1.5875,1.5875 H 149.75 c 8.9293,0 14.10829,-5.572912 14.25,-14.00001 0.14171,-8.427098 -7.87359,-14 -14.25,-14 -6.37641,0 -9.75481,-5.255209 -9.75,-9.5 0.005,-4.244791 3.5478,-9.499986 9.75,-9.49999 l 12.6625,-9e-6 A 1.5875011,1.5875011 134.99998 0 0 164,24.4125 v -1.325 a 1.5875011,1.5875011 45.00002 0 0 -1.5875,-1.587501 z m 18.80741,1.486413 9.38518,25.027174 A 8.7545412,8.7545412 79.721984 0 1 178.5,51.0875 v 20.325 A 1.5875,1.5875 45 0 0 180.0875,73 h 1.325 A 1.5875,1.5875 135 0 0 183,71.4125 v -20.325 a 8.7545353,8.7545353 100.27802 0 1 0.55741,-3.073923 l 9.38518,-25.027154 A 1.1001382,1.1001382 55.278023 0 0 191.9125,21.5 h -1.325 a 2.2397986,2.2397986 144.67216 0 0 -2.11335,1.497878 l -7.1983,20.504244 a 0.55731383,0.55731383 0 0 1 -1.0517,0 l -7.1983,-20.504244 a 2.2398091,2.2398091 35.327963 0 0 -2.11335,-1.497885 l -1.325,-6e-6 a 1.1001333,1.1001333 124.72211 0 0 -1.03009,1.486416 z M 230,23.0875 v 1.325 A 1.5875,1.5875 45 0 0 231.5875,26 h 8.825 A 1.5875,1.5875 45 0 1 242,27.5875 v 43.825 A 1.5875,1.5875 45 0 0 243.5875,73 h 1.325 A 1.5875,1.5875 135 0 0 246.5,71.4125 V 27.5875 A 1.5875,1.5875 135 0 1 248.0875,26 h 8.825 A 1.5875,1.5875 135 0 0 258.5,24.4125 v -1.324998 a 1.5875001,1.5875001 45.000002 0 0 -1.5875,-1.5875 L 231.5875,21.5 A 1.5874999,1.5874999 135 0 0 230,23.0875 Z m -30.5,0 v 48.325 A 1.5875,1.5875 45 0 0 201.0875,73 h 1.325 A 1.5875,1.5875 135 0 0 204,71.4125 v -36.325 a 0.30032417,0.30032417 169.28735 0 1 0.57989,-0.109705 l 14.34022,36.54441 A 2.3282918,2.3282918 34.287353 0 0 221.0875,73 h 1.325 A 1.5875,1.5875 135 0 0 224,71.4125 V 23.0875 A 1.5875,1.5875 45 0 0 222.4125,21.5 h -1.325 A 1.5875,1.5875 135 0 0 219.5,23.0875 v 36.325 a 0.30032417,0.30032417 169.28735 0 1 -0.57989,0.109705 L 204.57989,22.977795 A 2.3282918,2.3282918 34.287353 0 0 202.4125,21.5 h -1.325 A 1.5875,1.5875 135 0 0 199.5,23.0875 Z M 267.9125,21.5 h -1.325 A 1.5875,1.5875 135 0 0 265,23.0875 v 48.325 A 1.5875,1.5875 45 0 0 266.5875,73 h 1.325 A 1.5875,1.5875 135 0 0 269.5,71.4125 V 23.0875 A 1.5875,1.5875 45 0 0 267.9125,21.5 Z M 320,26 c 6.49367,0.02339 9.5,3.285289 9.5,9.5 V 59 c 0,6.54337 -3.43575,9.5 -9.5,9.5 -6.06425,0 -9.5,-3.9474 -9.5,-9.5 V 35.5 c 0,-6.349011 3.00633,-9.523389 9.5,-9.5 z m 27.0875,0 H 354 c 6.44948,0 9.5,3.287284 9.5,9.5 0,6.212716 -2.67268,9.5 -9.5,9.5 h -6.9125 A 1.5875,1.5875 45 0 1 345.5,43.4125 V 27.5875 A 1.5875,1.5875 135 0 1 347.0875,26 Z"/></g></svg>